SplineFontDB: 3.0
FontName: Farbod-Regular
FullName: Farbod Regular
FamilyName: Farbod
Weight: Regular
Copyright: Copyright (c) 2016 Copyright Holder (info@font-store.ir), with Reserved Font Name "Farbod"
UComments: "2015-5-13: Created with FontForge (http://fontforge.org)"
Version: Version:3.0.1;RFB:1.2.5;Building:2016-04-07 02:15:35.590346
FONDName: RITA
ItalicAngle: 0
UnderlinePosition: 500
UnderlineWidth: 59
Ascent: 800
Descent: 500
InvalidEm: 0
sfntRevision: 0x00010000
LayerCount: 2
Layer: 0 0 "Back" 1
Layer: 1 0 "Fore" 0
PreferredKerning: 4
XUID: [1021 828 -1901974348 32649]
StyleMap: 0x0040
FSType: 8
OS2Version: 3
OS2_WeightWidthSlopeOnly: 0
OS2_UseTypoMetrics: 0
CreationTime: 1431477301
ModificationTime: 1459979135
PfmFamily: 17
TTFWeight: 400
TTFWidth: 5
LineGap: 0
VLineGap: 0
Panose: 2 0 5 3 0 0 0 0 0 0
OS2TypoAscent: 800
OS2TypoAOffset: 0
OS2TypoDescent: -500
OS2TypoDOffset: 0
OS2TypoLinegap: 0
OS2WinAscent: 1100
OS2WinAOffset: 0
OS2WinDescent: 700
OS2WinDOffset: 0
HheadAscent: 1100
HheadAOffset: 0
HheadDescent: -700
HheadDOffset: 0
OS2SubXSize: 780
OS2SubYSize: 839
OS2SubXOff: -107
OS2SubYOff: 168
OS2SupXSize: 780
OS2SupYSize: 839
OS2SupXOff: 369
OS2SupYOff: 575
OS2StrikeYSize: 59
OS2StrikeYPos: 310
OS2Vendor: 'RITA'
OS2CodePages: 00000040.00000000
OS2UnicodeRanges: 80002003.80002000.00000008.00000000
MacStyle: 0
Lookup: 4 1 0 "ccmpGlyphCompositionDecompositioninArabiclookup5" { "ccmpGlyphCompositionDecompositioninArabiclookup5 subtable"  } ['ccmp' ('arab' <'dflt' > 'DFLT' <'dflt' > ) ]
Lookup: 1 1 0 "isolIsolatedFormsinLatinlookup1" { "isolIsolatedFormsinLatinlookup1 subtable"  } ['isol' ('arab' <'dflt' > 'DFLT' <'dflt' > ) ]
Lookup: 1 1 0 "finaTerminalFormsinArabiclookup3" { "finaTerminalFormsinArabiclookup3 subtable"  } ['fina' ('arab' <'dflt' > 'DFLT' <'dflt' > ) ]
Lookup: 1 1 0 "mediMedialFormsinArabiclookup2" { "mediMedialFormsinArabiclookup2 subtable"  } ['medi' ('arab' <'dflt' > 'DFLT' <'dflt' > ) ]

StartChar: _.alef.isol
Encoding: 65536 -1 0
GlifName: _.alef.isol
Width: 217
VWidth: 1304
GlyphClass: 2
Flags: HMW
LayerCount: 2
Fore
SplineSet
64 -16 m 1
 80 16 84 125 84 231 c 0
 84 319 81 406 81 442 c 2
 81 578 l 2
 81 620 123 669 140 700 c 1
 153 694 l 1
 153 372 l 2
 153 102 137 7 73 -25 c 1
 64 -16 l 1
EndSplineSet
Colour: ffda6b
EndChar

StartChar: _.alef.fina
Encoding: 65537 -1 1
GlifName: _.alef.fina
Width: 249
VWidth: 1304
GlyphClass: 2
Flags: HMW
LayerCount: 2
Fore
SplineSet
64 200 m 0
 65 326 65 452 65 578 c 0
 65 620 104 669 121 700 c 1
 133 694 l 1
 133 203 l 2
 133 192 130 112 194 102 c 1
 198 102 l 1
 209 101 221 100 233 100 c 2
 249 100 l 1
 249 -0 l 1
 233 -0 l 2
 190 0 143 7 111 40 c 0
 102 49 96 60 90 71 c 1
 90 72 l 1
 76 98 64 138 64 200 c 0
EndSplineSet
Colour: ffda6b
EndChar

StartChar: _.alef_kotah.isol
Encoding: 65538 -1 2
GlifName: _.alef_kotah.isol
Width: 366
VWidth: 1304
GlyphClass: 2
Flags: HMW
LayerCount: 2
Fore
SplineSet
197 101 m 2
 302 101 l 1
 302 0 l 1
 220 0 l 1
 187 2 77 -12 71 120 c 0
 70 148 64 524 64 524 c 1
 143 556 l 1
 143 556 140 230 140 170 c 0
 140 169 140 169 140 168 c 0
 140 153 142 101 197 101 c 2
EndSplineSet
Colour: ffda6b
EndChar

StartChar: _.alef_kotah.fina
Encoding: 65539 -1 3
GlifName: _.alef_kotah.fina
Width: 139
VWidth: 1304
GlyphClass: 2
Flags: HMW
LayerCount: 2
Fore
SplineSet
73 -6 m 1
 64 527 l 1
 139 557 l 1
 137 0 l 1
 73 -6 l 1
EndSplineSet
Colour: ffda6b
EndChar

StartChar: _.beh.isol
Encoding: 65540 -1 4
GlifName: _.beh.isol
Width: 935
VWidth: 1304
GlyphClass: 2
UnlinkRmOvrlpSave: 1
Flags: HMW
LayerCount: 2
Fore
SplineSet
64 206 m 0
 64 249 75 301 100 361 c 1
 125 349 l 1
 115 319 110 292 110 268 c 0
 110 143 238 100 393 100 c 0
 537 100 704 137 813 177 c 1
 809 209 797 247 769 290 c 1
 815 388 l 1
 857 326 871 273 871 228 c 0
 871 213 870 199 867 186 c 0
 862 156 851 103 819 88 c 0
 728 45 544 -1 381 -1 c 0
 211 -1 64 49 64 206 c 0
EndSplineSet
Colour: ffda6b
EndChar

StartChar: _.beh.fina
Encoding: 65541 -1 5
GlifName: _.beh.fina
Width: 980
VWidth: 1304
GlyphClass: 2
UnlinkRmOvrlpSave: 1
Flags: HMW
LayerCount: 2
Fore
SplineSet
825 92 m 1
 733 46 548 -1 381 -1 c 0
 211 -1 64 49 64 206 c 0
 64 249 75 301 100 361 c 1
 125 349 l 1
 115 318 110 291 110 267 c 0
 110 142 238 100 393 100 c 0
 530 100 688 133 797 171 c 0
 822 180 860 202 871 225 c 1
 877 225 l 1
 876 216 872 196 867 178 c 1
 866 121 911 100 964 100 c 2
 980 100 l 1
 980 -0 l 1
 964 -0 l 2
 902 0 845 27 825 92 c 1
EndSplineSet
Colour: ffda6b
EndChar

StartChar: _.beh.medi
Encoding: 65542 -1 6
GlifName: _.beh.medi
Width: 355
VWidth: 1304
GlyphClass: 2
UnlinkRmOvrlpSave: 1
Flags: HMW
LayerCount: 2
Fore
SplineSet
-50 50 m 0
 -49 76 -26 100 0 100 c 0
 24 100 49 100 73 100 c 0
 175 100 192 144 213 246 c 1
 254 237 l 1
 247 201 242 164 233 130 c 1
 260 101 301 99 339 99 c 0
 345 99 350 100 355 100 c 1
 355 -0 l 1
 329 -0 l 2
 264 0 226 22 201 56 c 1
 176 22 138 0 73 -0 c 0
 49 0 24 0 0 -0 c 0
 -26 0 -50 24 -50 50 c 0
EndSplineSet
Colour: ffda6b
EndChar

StartChar: _.beh.init
Encoding: 65543 -1 7
GlifName: _.beh.init
Width: 302
VWidth: 1197
GlyphClass: 1
UnlinkRmOvrlpSave: 1
Flags: HMW
LayerCount: 2
Fore
SplineSet
-50 48 m 0
 -50 75 -27 100 -1 100 c 2
 63 100 l 2
 116 100 154 113 180 130 c 1
 178 164 166 204 135 251 c 1
 183 348 l 1
 221 291 236 242 238 200 c 1
 238 199 l 2
 238 195 238 192 238 188 c 0
 238 169 236 151 231 136 c 0
 211 50 148 0 63 -0 c 2
 -2 -0 l 1
 -26 1 -50 23 -50 48 c 0
EndSplineSet
Colour: ffda6b
EndChar

StartChar: _.heh.isol
Encoding: 65544 -1 8
GlifName: _.heh.isol
Width: 686
VWidth: 1304
GlyphClass: 1
UnlinkRmOvrlpSave: 1
Flags: HMW
LayerCount: 2
Fore
SplineSet
157 241 m 0
 127 241 113 231 89 197 c 1
 64 212 l 1
 101 297 129 341 182 341 c 0
 258 341 447 259 600 259 c 1
 553 170 l 1
 328 122 190 21 142 -75 c 0
 132 -94 127 -114 127 -133 c 0
 127 -222 228 -301 368 -301 c 0
 434 -301 547 -293 616 -276 c 1
 622 -303 l 1
 565 -366 448 -400 358 -400 c 0
 225 -400 69 -346 69 -152 c 0
 69 -135 70 -116 73 -96 c 0
 89 18 170 139 337 205 c 1
 267 223 200 241 157 241 c 0
EndSplineSet
Colour: ffda6b
EndChar

StartChar: _.heh.fina
Encoding: 65545 -1 9
GlifName: _.heh.fina
Width: 664
VWidth: 1304
GlyphClass: 1
UnlinkRmOvrlpSave: 1
Flags: HMW
LayerCount: 2
Fore
SplineSet
157 241 m 0
 127 241 113 231 89 197 c 1
 64 212 l 1
 101 297 129 341 182 341 c 0
 258 341 447 259 600 259 c 1
 553 170 l 1
 536 166 518 161 501 157 c 1
 531 109 581 100 645 100 c 2
 664 100 l 1
 664 -0 l 1
 643 -0 l 2
 559 0 480 31 449 141 c 1
 284 88 181 5 142 -75 c 0
 132 -94 127 -114 127 -133 c 0
 127 -222 228 -301 368 -301 c 0
 434 -301 547 -293 616 -276 c 1
 622 -303 l 1
 565 -366 448 -400 358 -400 c 0
 225 -400 69 -346 69 -152 c 0
 69 -135 70 -116 73 -96 c 0
 89 18 170 139 337 205 c 1
 267 223 200 241 157 241 c 0
EndSplineSet
Colour: ffda6b
EndChar

StartChar: _.heh.medi
Encoding: 65546 -1 10
GlifName: _.heh.medi
Width: 644
VWidth: 1304
GlyphClass: 1
UnlinkRmOvrlpSave: 1
Flags: HMW
LayerCount: 2
Fore
SplineSet
177 271 m 0
 149 271 134 260 110 226 c 1
 85 241 l 1
 122 326 151 370 204 370 c 0
 280 370 468 260 621 260 c 1
 574 170 l 1
 547 170 519 162 489 148 c 1
 519 109 567 100 626 100 c 2
 644 100 l 1
 644 -0 l 1
 625 -0 l 2
 545 0 471 28 438 122 c 1
 348 72 249 0 130 -0 c 2
 -1 -0 l 2
 -25 0 -50 24 -50 49 c 0
 -50 76 -27 100 -1 100 c 2
 106 100 l 2
 239 100 335 151 422 197 c 1
 422 199 l 1
 327 229 233 271 177 271 c 0
EndSplineSet
Colour: ffda6b
EndChar

StartChar: _.heh.init
Encoding: 65547 -1 11
GlifName: _.heh.init
Width: 685
VWidth: 1304
GlyphClass: 1
UnlinkRmOvrlpSave: 1
Flags: HMW
LayerCount: 2
Fore
SplineSet
177 271 m 0
 149 271 134 260 110 226 c 1
 85 241 l 1
 122 326 151 370 204 370 c 0
 280 370 468 260 621 260 c 1
 574 170 l 1
 448 170 313 0 130 -0 c 2
 -1 -0 l 2
 -25 0 -50 24 -50 49 c 0
 -50 76 -27 100 -1 100 c 2
 106 100 l 2
 240 100 336 154 425 198 c 1
 329 228 234 271 177 271 c 0
EndSplineSet
Colour: ffda6b
EndChar

StartChar: _.sin.isol
Encoding: 65548 -1 12
GlifName: _.sin.isol
Width: 1086
VWidth: 1304
GlyphClass: 1
UnlinkRmOvrlpSave: 1
Flags: HMW
LayerCount: 2
Fore
SplineSet
1022 188 m 0
 1022 93 954 0 876 -0 c 0
 808 0 765 36 748 53 c 1
 722 25 682 0 622 -0 c 0
 599 0 579 5 563 11 c 1
 563 4 563 -1 562 -5 c 0
 562 -169 411 -267 276 -267 c 0
 165 -267 64 -202 64 -54 c 0
 64 0 78 65 109 141 c 0
 111 147 117 149 123 149 c 0
 135 149 149 142 149 132 c 0
 149 131 148 129 148 128 c 0
 127 73 119 26 119 -12 c 0
 119 -126 198 -171 288 -171 c 0
 369 -171 458 -134 505 -80 c 1
 505 -77 505 -73 505 -68 c 0
 505 -38 499 28 445 151 c 1
 492 250 l 1
 515 206 531 164 542 130 c 1
 551 121 590 101 623 100 c 0
 724 101 741 145 762 246 c 1
 804 237 l 1
 798 213 786 170 786 146 c 0
 786 138 788 132 791 130 c 0
 816 114 841 101 877 100 c 0
 914 100 939 114 964 130 c 1
 962 164 950 204 919 251 c 1
 967 348 l 1
 1005 291 1020 242 1022 200 c 1
 1022 199 l 2
 1022 195 1022 192 1022 188 c 0
EndSplineSet
Colour: ffda6b
EndChar

StartChar: _.sin.fina
Encoding: 65549 -1 13
GlifName: _.sin.fina
Width: 1148
VWidth: 1304
GlyphClass: 1
UnlinkRmOvrlpSave: 1
Flags: HMW
LayerCount: 2
Fore
SplineSet
64 -54 m 0
 64 0 78 65 109 141 c 0
 111 147 117 149 123 149 c 0
 135 149 149 142 149 132 c 0
 149 131 148 129 148 128 c 0
 127 73 119 26 119 -12 c 0
 119 -126 198 -171 288 -171 c 0
 369 -171 458 -134 505 -80 c 1
 505 -77 505 -73 505 -68 c 0
 505 -38 499 28 445 151 c 1
 492 250 l 1
 515 206 531 164 542 130 c 1
 551 121 590 101 623 100 c 0
 725 100 743 144 764 246 c 1
 805 237 l 1
 799 212 787 167 787 144 c 0
 787 137 788 132 791 130 c 0
 800 123 842 101 876 100 c 0
 915 100 941 107 959 118 c 1
 950 151 948 189 948 232 c 1
 988 255 l 1
 990 158 1016 100 1148 100 c 1
 1148 -0 l 1
 1074 0 1026 17 996 49 c 1
 970 22 930 0 873 -0 c 0
 807 1 766 36 749 53 c 1
 723 25 683 0 623 -0 c 0
 600 0 579 5 563 11 c 1
 563 4 563 -1 562 -5 c 0
 562 -169 411 -267 276 -267 c 0
 165 -267 64 -202 64 -54 c 0
EndSplineSet
Colour: ffda6b
EndChar

StartChar: _.sin.medi
Encoding: 65550 -1 14
GlifName: _.sin.medi
Width: 804
VWidth: 1304
GlyphClass: 1
UnlinkRmOvrlpSave: 1
Flags: HMW
LayerCount: 2
Fore
SplineSet
-50 50 m 0
 -50 76 -26 100 -1 100 c 2
 30 100 l 2
 132 100 149 145 170 246 c 1
 211 237 l 1
 206 213 193 169 193 145 c 0
 193 138 194 132 197 130 c 0
 206 123 246 101 280 100 c 0
 382 100 399 144 420 246 c 1
 462 237 l 1
 456 212 443 167 443 144 c 0
 443 137 444 132 447 130 c 0
 456 123 498 101 532 100 c 0
 571 100 598 107 616 118 c 1
 607 151 605 189 605 232 c 1
 644 255 l 1
 646 158 672 100 804 100 c 1
 804 -0 l 1
 730 0 683 17 653 49 c 1
 627 22 587 0 530 -0 c 0
 464 1 422 36 405 53 c 1
 379 25 340 0 280 -0 c 0
 214 1 171 36 154 53 c 1
 128 25 89 0 30 -0 c 2
 -1 -0 l 2
 -26 0 -50 24 -50 50 c 0
EndSplineSet
Colour: ffda6b
EndChar

StartChar: _.sin.init
Encoding: 65551 -1 15
GlifName: _.sin.init
Width: 801
VWidth: 1304
GlyphClass: 1
UnlinkRmOvrlpSave: 1
Flags: HMW
LayerCount: 2
Fore
SplineSet
737 188 m 0
 737 93 668 0 590 -0 c 0
 522 0 479 36 462 53 c 1
 436 25 397 0 338 -0 c 0
 270 0 226 36 209 53 c 1
 183 25 143 0 83 -0 c 2
 -1 -0 l 2
 -25 0 -50 24 -50 49 c 0
 -50 76 -27 100 -1 100 c 2
 85 100 l 1
 186 101 203 145 225 246 c 1
 265 237 l 1
 260 213 247 169 247 145 c 0
 247 138 249 132 252 130 c 0
 277 114 302 101 339 100 c 0
 440 101 456 145 477 246 c 1
 519 237 l 1
 513 213 501 170 501 146 c 0
 501 138 502 132 505 130 c 0
 530 114 555 101 591 100 c 0
 628 100 654 114 679 130 c 1
 677 164 664 204 633 251 c 1
 681 348 l 1
 719 291 735 242 737 200 c 1
 737 199 l 2
 737 195 737 192 737 188 c 0
EndSplineSet
Colour: ffda6b
EndChar

StartChar: _.sad.isol
Encoding: 65552 -1 16
GlifName: _.sad.isol
Width: 1121
VWidth: 1304
GlyphClass: 1
UnlinkRmOvrlpSave: 1
Flags: HMW
LayerCount: 2
Fore
SplineSet
1057 196 m 0
 1057 153 1044 110 1029 81 c 1
 1029 80 l 1
 998 30 946 0 882 -0 c 2
 673 -0 l 2
 615 0 582 14 561 31 c 1
 562 14 562 1 562 -5 c 0
 561 -169 411 -267 276 -267 c 0
 165 -267 64 -201 64 -54 c 0
 64 0 77 64 109 141 c 0
 111 147 118 149 124 149 c 0
 136 149 149 142 149 132 c 0
 149 131 149 129 149 128 c 0
 128 73 119 26 119 -13 c 0
 119 -127 197 -171 287 -171 c 0
 368 -171 458 -134 506 -80 c 1
 506 -78 506 -76 506 -73 c 0
 506 -46 503 21 444 151 c 1
 492 250 l 1
 502 230 511 211 518 193 c 0
 543 151 557 127 584 113 c 1
 679 220 789 363 907 364 c 0
 1004 364 1057 286 1057 196 c 0
997 147 m 0
 997 199 958 267 875 267 c 0
 785 267 706 179 625 100 c 1
 882 100 l 2
 932 100 969 112 995 128 c 1
 996 134 997 140 997 147 c 0
EndSplineSet
Colour: ffda6b
EndChar

StartChar: _.sad.fina
Encoding: 65553 -1 17
GlifName: _.sad.fina
Width: 1165
VWidth: 1304
GlyphClass: 1
UnlinkRmOvrlpSave: 1
Flags: HMW
LayerCount: 2
Fore
SplineSet
64 -54 m 0
 64 0 77 64 109 141 c 0
 111 147 118 149 124 149 c 0
 136 149 149 142 149 132 c 0
 149 131 149 129 149 128 c 0
 128 73 119 26 119 -13 c 0
 119 -127 197 -171 287 -171 c 0
 368 -171 458 -134 506 -80 c 1
 506 -78 506 -76 506 -73 c 0
 506 -46 503 21 444 151 c 1
 492 250 l 1
 502 230 511 211 518 193 c 0
 543 151 557 127 584 113 c 1
 679 220 789 363 907 364 c 0
 1004 364 1057 286 1057 196 c 0
 1057 177 1055 156 1050 136 c 0
 1050 132 1048 131 1047 127 c 0
 1074 102 1113 99 1148 99 c 0
 1154 99 1159 100 1165 100 c 1
 1165 -0 l 1
 1141 -0 l 2
 1076 0 1036 22 1013 58 c 1
 982 21 936 0 882 -0 c 2
 673 -0 l 2
 615 0 582 14 561 31 c 1
 562 14 562 1 562 -5 c 0
 561 -169 411 -267 276 -267 c 0
 165 -267 64 -201 64 -54 c 0
997 147 m 0
 997 199 958 267 875 267 c 0
 785 267 706 179 625 100 c 1
 882 100 l 2
 932 100 969 112 995 128 c 1
 996 134 997 140 997 147 c 0
EndSplineSet
Colour: ffda6b
EndChar

StartChar: _.sad.medi
Encoding: 65554 -1 18
GlifName: _.sad.medi
Width: 838
VWidth: 1304
GlyphClass: 1
UnlinkRmOvrlpSave: 1
Flags: HMW
LayerCount: 2
Fore
SplineSet
-50 50 m 0
 -49 76 -26 100 0 100 c 2
 24 100 l 2
 126 100 143 144 164 246 c 1
 206 237 l 1
 201 211 192 182 192 158 c 0
 192 139 198 125 215 117 c 0
 226 113 236 110 250 106 c 1
 346 214 458 363 579 364 c 0
 677 364 729 286 729 196 c 0
 729 176 727 156 722 136 c 0
 722 132 720 131 719 127 c 0
 746 102 785 99 820 99 c 0
 826 99 832 100 838 100 c 1
 838 -0 l 1
 813 -0 l 2
 748 0 708 22 685 58 c 1
 654 21 608 0 554 -0 c 2
 296 -0 l 1
 205 4 181 42 164 72 c 1
 141 38 98 0 24 -0 c 2
 -1 -0 l 1
 -26 1 -50 24 -50 50 c 0
670 147 m 0
 670 199 631 267 548 267 c 0
 456 267 377 179 295 100 c 1
 554 100 l 2
 604 100 642 112 668 128 c 1
 669 134 670 140 670 147 c 0
EndSplineSet
Colour: ffda6b
EndChar

StartChar: _.sad.init
Encoding: 65555 -1 19
GlifName: _.sad.init
Width: 793
VWidth: 1304
GlyphClass: 1
UnlinkRmOvrlpSave: 1
Flags: HMW
LayerCount: 2
Fore
SplineSet
729 196 m 0
 729 153 717 110 701 81 c 1
 701 80 l 1
 670 30 618 0 554 -0 c 2
 293 -0 l 1
 204 5 181 42 164 72 c 1
 141 38 98 0 24 -0 c 2
 -1 -0 l 1
 -26 1 -50 24 -50 50 c 0
 -49 76 -26 100 0 100 c 2
 24 100 l 2
 126 100 143 144 164 246 c 1
 206 237 l 1
 201 211 192 182 192 158 c 0
 192 139 198 125 215 117 c 0
 226 113 236 110 250 106 c 1
 346 214 458 363 579 364 c 0
 677 364 729 286 729 196 c 0
670 147 m 0
 670 199 631 267 548 267 c 0
 456 267 377 179 295 100 c 1
 554 100 l 2
 604 100 642 112 668 128 c 1
 669 134 670 140 670 147 c 0
EndSplineSet
Colour: ffda6b
EndChar

StartChar: _.ta.isol
Encoding: 65556 -1 20
GlifName: _.ta.isol
Width: 753
VWidth: 1304
GlyphClass: 1
UnlinkRmOvrlpSave: 1
Flags: HMW
LayerCount: 2
Fore
SplineSet
689 186 m 0
 689 146 676 107 662 81 c 1
 662 80 l 1
 631 30 580 0 516 -0 c 2
 64 -0 l 1
 100 100 l 1
 154 100 l 2
 165 100 251 104 252 200 c 0
 252 298 250 401 250 442 c 2
 250 570 l 2
 250 611 265 634 308 700 c 1
 320 694 l 1
 320 273 l 2
 320 256 317 240 315 224 c 1
 383 299 442 363 540 364 c 0
 623 364 689 280 689 186 c 0
631 147 m 0
 631 199 592 267 509 267 c 0
 417 267 338 181 256 100 c 1
 516 100 l 2
 566 100 603 112 629 128 c 1
 630 134 631 140 631 147 c 0
EndSplineSet
Colour: ffda6b
EndChar

StartChar: _.ta.fina
Encoding: 65557 -1 21
GlifName: _.ta.fina
Width: 799
VWidth: 1304
GlyphClass: 1
UnlinkRmOvrlpSave: 1
Flags: HMW
LayerCount: 2
Fore
SplineSet
64 -0 m 1
 100 100 l 1
 154 100 l 2
 165 100 251 104 252 200 c 0
 252 298 250 401 250 442 c 2
 250 570 l 2
 250 611 265 634 308 700 c 1
 320 694 l 1
 320 273 l 2
 320 256 317 240 315 224 c 1
 383 299 442 363 540 364 c 0
 623 364 689 280 689 186 c 0
 689 170 687 152 683 136 c 0
 683 132 682 131 681 127 c 0
 708 102 747 99 782 99 c 0
 788 99 793 100 799 100 c 1
 799 -0 l 1
 774 -0 l 2
 709 0 669 22 646 58 c 1
 615 21 570 0 516 -0 c 2
 64 -0 l 1
631 147 m 0
 631 199 592 267 509 267 c 0
 417 267 338 181 256 100 c 1
 516 100 l 2
 566 100 603 112 629 128 c 1
 630 134 631 140 631 147 c 0
EndSplineSet
Colour: ffda6b
EndChar

StartChar: _.ta.medi
Encoding: 65558 -1 22
GlifName: _.ta.medi
Width: 702
VWidth: 1304
GlyphClass: 1
UnlinkRmOvrlpSave: 1
Flags: HMW
LayerCount: 2
Fore
SplineSet
-50 50 m 0
 -50 76 -26 100 -1 100 c 2
 57 100 l 2
 68 100 155 104 156 200 c 0
 156 298 153 401 153 442 c 2
 153 570 l 2
 153 611 168 634 211 700 c 1
 223 694 l 1
 223 273 l 2
 223 256 220 240 218 224 c 1
 286 299 346 363 444 364 c 0
 527 364 593 280 593 186 c 0
 593 170 590 152 586 136 c 0
 586 132 585 131 584 127 c 0
 611 102 650 99 685 99 c 0
 691 99 696 100 702 100 c 1
 702 -0 l 1
 678 -0 l 2
 613 0 573 22 550 58 c 1
 519 21 473 0 419 -0 c 2
 -1 -0 l 2
 -26 0 -50 24 -50 50 c 0
534 147 m 0
 534 199 495 267 412 267 c 0
 320 267 241 181 159 100 c 1
 419 100 l 2
 469 100 506 112 532 128 c 1
 533 134 534 140 534 147 c 0
EndSplineSet
Colour: ffda6b
EndChar

StartChar: _.ta.init
Encoding: 65559 -1 23
GlifName: _.ta.init
Width: 657
VWidth: 1304
GlyphClass: 1
UnlinkRmOvrlpSave: 1
Flags: HMW
LayerCount: 2
Fore
SplineSet
593 186 m 0
 593 146 580 107 566 81 c 1
 566 80 l 1
 535 30 483 0 419 -0 c 2
 -1 -0 l 2
 -26 0 -50 24 -50 50 c 0
 -50 76 -26 100 -1 100 c 2
 57 100 l 2
 68 100 155 104 156 200 c 0
 156 298 153 401 153 442 c 2
 153 570 l 2
 153 611 168 634 211 700 c 1
 223 694 l 1
 223 273 l 2
 223 256 220 240 218 224 c 1
 286 299 346 363 444 364 c 0
 527 364 593 280 593 186 c 0
534 147 m 0
 534 199 495 267 412 267 c 0
 320 267 241 181 159 100 c 1
 419 100 l 2
 469 100 506 112 532 128 c 1
 533 134 534 140 534 147 c 0
EndSplineSet
Colour: ffda6b
EndChar

StartChar: _.ein.isol
Encoding: 65560 -1 24
GlifName: _.ein.isol
Width: 681
VWidth: 1304
GlyphClass: 1
UnlinkRmOvrlpSave: 1
Flags: HMW
LayerCount: 2
Fore
SplineSet
64 -152 m 0
 64 -135 65 -116 68 -96 c 0
 82 -1 140 97 253 166 c 1
 221 199 200 263 200 318 c 0
 200 330 201 342 203 353 c 1
 203 361 l 1
 227 440 302 484 385 484 c 0
 434 484 486 468 532 433 c 1
 518 394 l 1
 494 400 469 403 442 403 c 0
 375 403 305 383 261 337 c 1
 271 275 319 197 362 193 c 1
 430 210 492 228 563 228 c 1
 543 171 l 1
 475 166 411 136 353 107 c 0
 241 55 169 -11 137 -75 c 0
 127 -94 123 -114 123 -133 c 0
 123 -222 223 -301 363 -301 c 0
 429 -301 542 -293 611 -276 c 1
 617 -303 l 1
 560 -366 443 -400 353 -400 c 0
 220 -400 64 -346 64 -152 c 0
EndSplineSet
Colour: ffda6b
EndChar

StartChar: _.ein.fina
Encoding: 65561 -1 25
GlifName: _.ein.fina
Width: 627
VWidth: 1304
GlyphClass: 1
UnlinkRmOvrlpSave: 1
Flags: HMW
LayerCount: 2
Fore
SplineSet
360 424 m 0
 450 424 494 384 494 324 c 0
 494 269 459 201 398 145 c 1
 440 120 489 103 554 103 c 2
 627 103 l 1
 627 2 l 1
 563 2 l 2
 463 2 391 44 331 96 c 1
 231 47 167 -15 137 -75 c 0
 127 -94 123 -114 123 -133 c 0
 123 -222 223 -301 363 -301 c 0
 429 -301 542 -293 611 -276 c 1
 617 -303 l 1
 560 -366 443 -400 353 -400 c 0
 220 -400 64 -346 64 -152 c 0
 64 -135 65 -116 68 -96 c 0
 82 0 140 99 256 168 c 1
 199 226 150 280 86 289 c 0
 84 289 80 288 78 287 c 1
 78 290 l 1
 90 353 l 1
 99 386 l 1
 153 407 287 424 360 424 c 0
431 287 m 0
 431 308 398 323 343 323 c 0
 309 323 255 319 202 311 c 1
 249 280 287 237 329 198 c 1
 391 227 431 262 431 287 c 0
EndSplineSet
Colour: ffda6b
EndChar

StartChar: _.ein.medi
Encoding: 65562 -1 26
GlifName: _.ein.medi
Width: 530
VWidth: 1304
GlyphClass: 1
UnlinkRmOvrlpSave: 1
Flags: HMW
LayerCount: 2
Fore
SplineSet
334 380 m 0
 421 380 464 345 464 291 c 0
 464 238 424 170 359 114 c 1
 385 105 418 100 457 100 c 2
 530 100 l 1
 530 -0 l 1
 466 -0 l 2
 382 0 325 26 281 60 c 1
 217 24 139 0 57 -0 c 2
 0 -0 l 1
 -25 1 -50 24 -50 50 c 0
 -50 75 -25 99 -2 100 c 1
 57 100 l 2
 112 100 167 109 217 123 c 1
 168 181 130 237 61 246 c 0
 57 246 53 245 51 244 c 1
 51 247 l 1
 64 310 l 1
 73 343 l 1
 126 364 261 380 334 380 c 0
405 243 m 0
 405 264 371 279 316 279 c 0
 282 279 227 276 174 268 c 1
 220 234 246 187 292 150 c 1
 359 180 405 216 405 243 c 0
EndSplineSet
Colour: ffda6b
EndChar

StartChar: _.ein.init
Encoding: 65563 -1 27
GlifName: _.ein.init
Width: 505
VWidth: 1304
GlyphClass: 1
UnlinkRmOvrlpSave: 1
Flags: HMW
LayerCount: 2
Fore
SplineSet
-50 50 m 0
 -50 75 -26 100 0 100 c 0
 47 100 89 103 127 109 c 1
 97 144 79 205 79 258 c 0
 79 270 80 282 82 293 c 0
 82 295 83 298 83 300 c 0
 107 379 181 424 263 424 c 0
 312 424 364 408 410 373 c 1
 397 333 l 1
 373 339 347 343 320 343 c 0
 253 343 184 323 140 277 c 1
 150 215 197 137 239 133 c 1
 308 150 370 167 441 167 c 1
 421 111 l 1
 287 100 207 0 -1 -0 c 0
 -26 0 -50 24 -50 50 c 0
EndSplineSet
Colour: ffda6b
EndChar

StartChar: _.feh.isol
Encoding: 65564 -1 28
GlifName: _.feh.isol
Width: 933
VWidth: 1304
GlyphClass: 1
UnlinkRmOvrlpSave: 1
Flags: HMW
LayerCount: 2
Fore
SplineSet
64 206 m 0
 64 249 75 301 100 361 c 1
 125 349 l 1
 115 318 110 292 110 268 c 0
 110 143 239 100 394 100 c 0
 533 100 692 134 801 172 c 1
 802 182 802 193 802 203 c 0
 802 207 802 211 802 215 c 1
 774 208 742 203 710 203 c 0
 641 203 577 228 577 315 c 0
 577 321 577 328 578 335 c 0
 590 420 635 519 713 519 c 0
 801 519 869 403 869 262 c 0
 869 237 866 215 863 192 c 0
 858 162 853 104 819 88 c 0
 728 45 544 -1 381 -1 c 0
 211 -1 64 49 64 206 c 0
623 340 m 1
 623 339 623 337 623 336 c 0
 623 313 666 301 718 301 c 0
 741 301 767 304 791 308 c 1
 776 372 744 420 695 420 c 0
 651 420 623 366 623 344 c 0
 623 343 623 341 623 340 c 1
EndSplineSet
Colour: ffda6b
EndChar

StartChar: _.feh.fina
Encoding: 65565 -1 29
GlifName: _.feh.fina
Width: 964
VWidth: 1304
GlyphClass: 1
UnlinkRmOvrlpSave: 1
Flags: HMW
LayerCount: 2
Fore
SplineSet
64 206 m 0
 64 249 75 301 100 361 c 1
 125 349 l 1
 115 319 110 292 110 268 c 0
 110 143 237 100 392 100 c 0
 471 100 557 111 636 128 c 1
 619 149 609 171 609 193 c 0
 609 195 610 198 610 200 c 0
 610 301 691 400 750 400 c 0
 809 400 861 299 861 247 c 0
 861 202 843 157 813 119 c 1
 852 107 895 100 937 100 c 2
 964 100 l 1
 964 -0 l 1
 877 0 793 22 729 54 c 1
 632 24 501 -1 381 -1 c 0
 211 -1 64 49 64 206 c 0
737 300 m 0
 714 300 671 270 650 229 c 1
 650 204 690 171 745 145 c 1
 792 170 818 200 823 221 c 1
 823 220 l 1
 823 221 l 0
 823 245 777 300 737 300 c 0
EndSplineSet
Colour: ffda6b
EndChar

StartChar: _.feh.medi
Encoding: 65566 -1 30
GlifName: _.feh.medi
Width: 449
VWidth: 1304
GlyphClass: 1
UnlinkRmOvrlpSave: 1
Flags: HMW
LayerCount: 2
Fore
SplineSet
-50 50 m 0
 -50 76 -26 100 -1 100 c 2
 29 100 l 2
 68 100 104 105 135 111 c 1
 109 137 94 165 94 194 c 0
 94 196 94 198 94 200 c 0
 94 301 175 400 234 400 c 0
 293 400 345 299 345 247 c 0
 345 202 327 157 297 119 c 1
 336 107 379 100 421 100 c 2
 449 100 l 1
 449 -0 l 1
 364 0 281 21 218 53 c 1
 164 20 98 0 28 -0 c 2
 -1 -0 l 1
 -26 1 -50 24 -50 50 c 0
221 300 m 0
 198 300 156 270 135 229 c 1
 135 204 174 171 229 145 c 1
 276 170 302 200 307 221 c 1
 307 220 l 1
 307 221 l 0
 307 245 261 300 221 300 c 0
EndSplineSet
Colour: ffda6b
EndChar

StartChar: _.feh.init
Encoding: 65567 -1 31
GlifName: _.feh.init
Width: 363
VWidth: 1304
GlyphClass: 1
UnlinkRmOvrlpSave: 1
Flags: HMW
LayerCount: 2
Fore
SplineSet
-50 49 m 0
 -50 76 -27 100 -1 100 c 2
 120 100 l 2
 167 100 201 109 227 124 c 1
 230 142 232 162 232 182 c 0
 232 186 232 192 232 196 c 1
 204 189 172 183 140 183 c 0
 71 183 7 208 7 295 c 0
 7 301 7 308 8 315 c 0
 20 400 65 500 143 500 c 0
 231 500 299 384 299 242 c 0
 299 208 294 172 286 136 c 1
 270 50 205 0 120 -0 c 2
 -1 -0 l 2
 -25 0 -50 24 -50 49 c 0
53 320 m 1
 48 294 94 281 149 281 c 0
 172 281 197 284 221 288 c 1
 206 351 174 400 125 400 c 0
 78 400 49 338 53 320 c 1
EndSplineSet
Colour: ffda6b
EndChar

StartChar: _.qaf.isol
Encoding: 65568 -1 32
GlifName: _.qaf.isol
Width: 741
VWidth: 1304
GlyphClass: 1
UnlinkRmOvrlpSave: 1
Flags: HMW
LayerCount: 2
Fore
SplineSet
614 -12 m 0
 614 1 613 14 611 27 c 1
 578 9 533 -2 489 -2 c 0
 416 -2 346 30 346 119 c 0
 346 135 349 155 354 175 c 0
 377 272 442 368 519 368 c 0
 520 368 l 0
 627 363 677 204 677 59 c 0
 677 -12 664 -63 644 -117 c 0
 600 -235 455 -301 318 -301 c 0
 185 -300 64 -223 64 -57 c 0
 64 1 79 70 114 151 c 0
 116 157 122 159 128 159 c 0
 140 159 154 151 154 141 c 0
 154 140 153 139 153 138 c 0
 132 83 123 35 123 -6 c 0
 123 -139 221 -200 338 -200 c 0
 418 -200 504 -171 572 -116 c 1
 572 -115 l 1
 605 -91 614 -52 614 -12 c 0
408 162 m 0
 408 117 456 101 507 101 c 0
 538 101 570 106 594 114 c 1
 577 190 543 267 487 271 c 0
 486 271 484 271 483 271 c 0
 448 271 421 228 410 180 c 0
 409 174 408 168 408 162 c 0
EndSplineSet
Colour: ffda6b
EndChar

StartChar: _.qaf.fina
Encoding: 65569 -1 33
GlifName: _.qaf.fina
Width: 662
VWidth: 1304
GlyphClass: 1
UnlinkRmOvrlpSave: 1
Flags: HMW
LayerCount: 2
Fore
SplineSet
64 -54 m 0
 64 0 78 64 109 141 c 0
 111 147 117 149 123 149 c 0
 135 149 149 142 149 132 c 0
 149 131 148 129 148 128 c 0
 127 73 119 26 119 -12 c 0
 119 -126 198 -171 288 -171 c 0
 361 -171 440 -141 490 -96 c 1
 505 -75 509 -35 510 1 c 1
 429 2 373 9 337 29 c 0
 305 45 284 75 284 125 c 0
 284 131 284 138 285 145 c 0
 297 230 342 329 420 329 c 0
 502 329 566 228 575 100 c 1
 662 100 l 1
 662 -0 l 1
 570 -0 l 1
 566 -21 562 -42 556 -62 c 0
 526 -192 395 -267 276 -267 c 0
 165 -267 64 -201 64 -54 c 0
330 150 m 1
 330 149 330 148 330 147 c 0
 330 134 342 124 362 118 c 0
 392 109 432 103 503 101 c 1
 488 172 455 230 402 230 c 0
 358 230 330 176 330 154 c 0
 330 153 330 151 330 150 c 1
EndSplineSet
Colour: ffda6b
EndChar

StartChar: _.kaf.isol.fa
Encoding: 65570 -1 34
GlifName: _.kaf.isol.fa
Width: 1062
VWidth: 1304
GlyphClass: 1
UnlinkRmOvrlpSave: 1
Flags: HMW
LayerCount: 2
Fore
SplineSet
64 206 m 0
 64 249 75 301 100 361 c 1
 125 349 l 1
 115 318 110 292 110 268 c 0
 110 143 238 100 393 100 c 0
 531 100 689 134 798 172 c 1
 775 290 652 394 581 438 c 0
 570 446 563 450 563 468 c 0
 563 510 590 569 627 606 c 1
 998 714 l 1
 977 614 l 1
 647 519 l 1
 766 427 863 312 863 187 c 0
 863 140 853 104 819 88 c 0
 728 45 544 -1 381 -1 c 0
 211 -1 64 49 64 206 c 0
EndSplineSet
Colour: ffda6b
EndChar

StartChar: _.kaf.isol.ar
Encoding: 65571 -1 35
GlifName: _.kaf.isol.ar
Width: 931
VWidth: 1304
GlyphClass: 1
UnlinkRmOvrlpSave: 1
Flags: HMW
LayerCount: 2
Fore
SplineSet
64 206 m 0
 64 249 75 301 100 361 c 1
 125 349 l 1
 115 318 110 292 110 268 c 0
 110 143 238 100 393 100 c 0
 531 100 690 134 798 172 c 1
 799 198 799 226 799 253 c 0
 799 333 797 409 797 442 c 2
 797 578 l 2
 797 620 839 669 855 700 c 1
 867 694 l 1
 867 372 l 2
 867 290 866 224 862 171 c 0
 861 134 850 103 819 88 c 0
 728 45 544 -1 381 -1 c 0
 211 -1 64 49 64 206 c 0
EndSplineSet
Colour: ffda6b
EndChar

StartChar: _.kaf.fina.fa
Encoding: 65572 -1 36
GlifName: _.kaf.fina.fa
Width: 1068
VWidth: 1304
GlyphClass: 1
UnlinkRmOvrlpSave: 1
Flags: HMW
LayerCount: 2
Fore
SplineSet
64 206 m 0
 64 249 75 301 100 361 c 1
 125 349 l 1
 115 318 110 292 110 268 c 0
 110 143 238 100 393 100 c 0
 531 100 689 134 798 172 c 1
 774 288 655 393 581 438 c 0
 570 446 563 450 563 468 c 0
 563 510 590 569 627 606 c 1
 998 714 l 1
 977 614 l 1
 647 519 l 1
 711 470 769 414 808 354 c 0
 878 249 929 100 1068 100 c 1
 1068 -0 l 1
 960 0 901 53 849 124 c 1
 843 108 833 94 819 88 c 0
 728 45 544 -1 381 -1 c 0
 211 -1 64 49 64 206 c 0
EndSplineSet
Colour: ffda6b
EndChar

StartChar: _.kaf.fina.ar
Encoding: 65573 -1 37
GlifName: _.kaf.fina.ar
Width: 988
VWidth: 1304
GlyphClass: 1
UnlinkRmOvrlpSave: 1
Flags: HMW
LayerCount: 2
Fore
SplineSet
64 206 m 0
 64 249 75 301 100 361 c 1
 125 349 l 1
 115 318 110 292 110 268 c 0
 110 143 238 100 393 100 c 0
 531 100 690 134 798 172 c 1
 798 178 798 185 798 191 c 0
 798 211 798 232 798 252 c 0
 798 333 797 409 797 442 c 2
 797 578 l 2
 797 620 839 669 855 700 c 1
 867 694 l 1
 867 212 l 1
 876 160 901 100 988 100 c 1
 988 -0 l 1
 894 0 845 40 820 88 c 1
 729 45 545 -1 382 -1 c 0
 212 -1 64 49 64 206 c 0
EndSplineSet
Colour: ffda6b
EndChar

StartChar: _.kaf.medi
Encoding: 65574 -1 38
GlifName: _.kaf.medi
Width: 532
VWidth: 1304
GlyphClass: 1
UnlinkRmOvrlpSave: 1
Flags: HMW
LayerCount: 2
Fore
SplineSet
-50 50 m 0
 -49 75 -26 100 -1 100 c 2
 154 100 l 2
 204 100 240 112 266 127 c 1
 266 129 266 130 266 132 c 0
 266 194 234 256 201 298 c 0
 153 361 90 411 46 438 c 0
 35 446 27 450 27 468 c 0
 27 510 55 569 92 606 c 1
 462 714 l 1
 441 614 l 1
 111 519 l 1
 175 470 234 414 273 354 c 0
 343 249 393 100 532 100 c 1
 532 -0 l 1
 426 0 367 50 317 118 c 1
 294 43 233 0 154 -0 c 2
 -1 -0 l 1
 -26 1 -50 24 -50 50 c 0
EndSplineSet
Colour: ffda6b
EndChar

StartChar: _.kaf.init
Encoding: 65575 -1 39
GlifName: _.kaf.init
Width: 526
VWidth: 1304
GlyphClass: 1
UnlinkRmOvrlpSave: 1
Flags: HMW
LayerCount: 2
Fore
SplineSet
328 189 m 0
 328 72 254 0 154 -0 c 2
 -1 -0 l 1
 -26 1 -50 24 -50 50 c 0
 -49 75 -26 100 -1 100 c 2
 154 100 l 2
 204 100 240 112 266 127 c 1
 266 129 266 130 266 132 c 0
 266 268 125 389 46 438 c 0
 35 446 27 450 27 468 c 0
 27 510 55 569 92 606 c 1
 462 714 l 1
 441 614 l 1
 111 519 l 1
 230 428 328 313 328 189 c 0
EndSplineSet
Colour: ffda6b
EndChar

StartChar: _.kaf_hamze.isol.ar
Encoding: 65576 -1 40
GlifName: _.kaf_hamze.isol.ar
Width: 350
VWidth: 1304
GlyphClass: 1
UnlinkRmOvrlpSave: 1
Flags: HMW
LayerCount: 2
Fore
SplineSet
79 35 m 0
 154 35 245 49 245 87 c 0
 245 98 221 101 192 101 c 0
 168 101 141 100 124 100 c 1
 124 103 124 105 124 108 c 0
 124 171 162 274 257 274 c 1
 245 223 l 1
 209 223 166 188 161 150 c 1
 173 150 187 151 201 151 c 0
 242 151 286 144 286 98 c 0
 286 37 210 -1 139 -1 c 0
 107 -1 85 10 64 22 c 1
 69 36 l 1
 72 36 76 35 79 35 c 0
EndSplineSet
Colour: ffda6b
EndChar

StartChar: _.ghaf.isol
Encoding: 65577 -1 41
GlifName: _.ghaf.isol
Width: 1062
VWidth: 0
GlyphClass: 1
UnlinkRmOvrlpSave: 1
Flags: HMW
LayerCount: 2
Fore
SplineSet
64 206 m 0
 64 249 75 301 100 361 c 1
 125 349 l 1
 115 318 110 292 110 268 c 0
 110 143 238 100 393 100 c 0
 531 100 689 134 798 172 c 1
 775 290 652 394 581 438 c 0
 570 446 563 450 563 468 c 0
 563 510 590 569 627 606 c 1
 998 714 l 1
 977 614 l 1
 647 519 l 1
 766 427 863 312 863 187 c 0
 863 140 853 104 819 88 c 0
 728 45 544 -1 381 -1 c 0
 211 -1 64 49 64 206 c 0
636 668 m 1
 647 724 l 1
 973 812 l 1
 963 753 l 1
 636 668 l 1
EndSplineSet
Colour: ffda6b
EndChar

StartChar: _.ghaf.fina
Encoding: 65578 -1 42
GlifName: _.ghaf.fina
Width: 1068
VWidth: 0
GlyphClass: 1
Flags: HMW
LayerCount: 2
Fore
SplineSet
64 206 m 0
 64 249 75 301 100 361 c 1
 125 349 l 1
 115 318 110 292 110 268 c 0
 110 143 238 100 393 100 c 0
 531 100 689 134 798 172 c 1
 774 288 655 393 581 438 c 0
 570 446 563 450 563 468 c 0
 563 510 590 569 627 606 c 1
 998 714 l 1
 977 614 l 1
 647 519 l 1
 711 470 769 414 808 354 c 0
 878 249 929 100 1068 100 c 1
 1068 -0 l 1
 960 0 901 53 849 124 c 1
 843 108 833 94 819 88 c 0
 728 45 544 -1 381 -1 c 0
 211 -1 64 49 64 206 c 0
636 668 m 1
 647 724 l 1
 973 812 l 1
 963 753 l 1
 636 668 l 1
EndSplineSet
Colour: ffda6b
EndChar

StartChar: _.ghaf_sarkaj.medi
Encoding: 65579 -1 43
GlifName: _.ghaf_sarkaj.medi
Width: 347
VWidth: 1304
GlyphClass: 1
UnlinkRmOvrlpSave: 1
Flags: HMW
LayerCount: 2
Fore
SplineSet
-50 37 m 0
 -50 51 -44 62 -28 69 c 1
 347 288 l 1
 347 284 l 1
 335 230 l 1
 -48 1 l 1
 -50 11 -50 23 -50 37 c 0
EndSplineSet
Colour: ffda6b
EndChar

StartChar: _.lam.isol
Encoding: 65580 -1 44
GlifName: _.lam.isol
Width: 626
VWidth: 1304
GlyphClass: 1
UnlinkRmOvrlpSave: 1
Flags: HMW
LayerCount: 2
Fore
SplineSet
64 -54 m 0
 64 0 78 65 109 141 c 0
 111 147 117 149 123 149 c 0
 135 149 149 142 149 132 c 0
 149 131 148 129 148 128 c 0
 127 73 118 26 118 -13 c 0
 118 -127 197 -171 287 -171 c 0
 367 -171 455 -136 503 -83 c 1
 503 -3 490 382 490 578 c 0
 490 620 532 669 549 700 c 1
 562 694 l 1
 562 -5 l 2
 562 -169 411 -267 276 -267 c 0
 165 -267 64 -202 64 -54 c 0
558 -10 m 2
 562 -5 l 2
 561 -6 559 -8 558 -10 c 2
EndSplineSet
Colour: ffda6b
EndChar

StartChar: _.lam.fina
Encoding: 65581 -1 45
GlifName: _.lam.fina
Width: 702
VWidth: 1304
GlyphClass: 1
UnlinkRmOvrlpSave: 1
Flags: HMW
LayerCount: 2
Fore
SplineSet
64 -54 m 0
 64 0 78 65 109 141 c 0
 111 147 117 149 123 149 c 0
 135 149 149 142 149 132 c 0
 149 131 148 129 148 128 c 0
 127 73 118 26 118 -13 c 0
 118 -127 197 -171 287 -171 c 0
 367 -171 455 -136 503 -83 c 1
 503 -3 490 382 490 578 c 0
 490 620 532 669 549 700 c 1
 562 694 l 1
 562 157 l 1
 580 118 611 100 676 100 c 2
 702 100 l 1
 702 -0 l 1
 676 -0 l 2
 622 0 587 15 562 40 c 1
 562 -5 l 2
 562 -169 411 -267 276 -267 c 0
 165 -267 64 -202 64 -54 c 0
558 -10 m 2
 562 -5 l 2
 561 -6 559 -8 558 -10 c 2
EndSplineSet
Colour: ffda6b
EndChar

StartChar: _.lam.medi
Encoding: 65582 -1 46
GlifName: _.lam.medi
Width: 326
VWidth: 1304
GlyphClass: 1
UnlinkRmOvrlpSave: 1
Flags: HMW
LayerCount: 2
Fore
SplineSet
-50 48 m 0
 -50 75 -27 100 -1 100 c 2
 23 100 l 2
 69 100 101 109 127 123 c 1
 123 271 119 459 119 578 c 0
 119 620 161 669 178 700 c 1
 190 694 l 1
 190 150 l 1
 210 116 241 100 301 100 c 2
 326 100 l 1
 326 -0 l 1
 301 -0 l 2
 227 0 187 28 164 71 c 1
 133 25 85 0 23 -0 c 2
 -2 -0 l 1
 -26 1 -50 23 -50 48 c 0
EndSplineSet
Colour: ffda6b
EndChar

StartChar: _.lam.init
Encoding: 65583 -1 47
GlifName: _.lam.init
Width: 255
VWidth: 1304
GlyphClass: 1
UnlinkRmOvrlpSave: 1
Flags: HMW
LayerCount: 2
Fore
SplineSet
-50 48 m 0
 -50 75 -27 100 -1 100 c 2
 24 100 l 2
 66 100 97 108 122 119 c 1
 122 122 l 2
 122 239 112 389 110 441 c 2
 105 577 l 2
 104 619 144 670 159 700 c 1
 173 695 l 1
 191 135 l 1
 170 49 109 0 24 -0 c 2
 -2 -0 l 1
 -26 1 -50 23 -50 48 c 0
EndSplineSet
Colour: ffda6b
EndChar

StartChar: _.mim.isol
Encoding: 65584 -1 48
GlifName: _.mim.isol
Width: 501
VWidth: 1304
GlyphClass: 1
UnlinkRmOvrlpSave: 1
Flags: HMW
LayerCount: 2
Fore
SplineSet
185 243 m 1
 350 269 l 1
 321 312 277 352 253 352 c 0
 247 352 242 349 239 343 c 2
 185 243 l 1
64 111 m 1
 73 197 118 226 180 241 c 1
 145 260 l 1
 205 401 234 454 276 454 c 0
 280 454 283 454 287 453 c 0
 356 438 437 342 437 293 c 0
 437 289 437 286 436 283 c 2
 379 181 l 1
 208 150 l 2
 178 144 149 142 127 132 c 1
 131 0 134 -63 134 -181 c 0
 134 -223 92 -272 76 -303 c 1
 64 -297 l 1
 64 111 l 1
EndSplineSet
Colour: ffda6b
EndChar

StartChar: _.mim.fina
Encoding: 65585 -1 49
GlifName: _.mim.fina
Width: 532
VWidth: 1304
GlyphClass: 1
UnlinkRmOvrlpSave: 1
Flags: HMW
LayerCount: 2
Fore
SplineSet
64 35 m 0
 64 128 93 152 332 251 c 1
 332 245 l 1
 360 159 472 100 532 100 c 1
 532 -0 l 1
 498 0 461 6 424 24 c 1
 399 -64 354 -98 307 -98 c 0
 237 -98 162 -23 141 65 c 1
 136 61 132 59 128 55 c 0
 132 -93 136 -167 136 -291 c 0
 136 -333 94 -383 77 -413 c 1
 65 -408 l 1
 65 -3 l 2
 64 11 64 24 64 35 c 0
207 102 m 1
 236 38 287 -4 332 -4 c 0
 358 -4 381 10 397 40 c 1
 365 63 333 99 305 149 c 1
 266 131 234 116 207 102 c 1
EndSplineSet
Colour: ffda6b
EndChar

StartChar: _.mim.medi
Encoding: 65586 -1 50
GlifName: _.mim.medi
Width: 580
VWidth: 1304
GlyphClass: 1
UnlinkRmOvrlpSave: 1
Flags: HMW
LayerCount: 2
Fore
SplineSet
-50 50 m 0
 -49 76 -26 100 0 100 c 2
 12 100 l 2
 34 100 62 101 89 107 c 1
 89 108 l 1
 99 109 107 112 116 116 c 0
 173 143 222 222 252 260 c 0
 263 273 273 279 284 279 c 0
 294 279 306 273 317 264 c 0
 413 188 464 100 580 100 c 1
 580 -0 l 1
 530 0 482 21 436 52 c 1
 396 -21 357 -51 315 -51 c 0
 266 -51 213 -10 153 52 c 1
 116 16 71 0 12 -0 c 2
 0 -0 l 2
 -26 0 -50 24 -50 50 c 0
201 119 m 1
 246 76 286 48 323 48 c 0
 346 48 369 60 392 85 c 1
 359 112 327 140 297 166 c 0
 285 176 274 181 265 181 c 0
 258 181 252 178 247 172 c 2
 201 119 l 1
EndSplineSet
Colour: ffda6b
EndChar

StartChar: _.mim.init
Encoding: 65587 -1 51
GlifName: _.mim.init
Width: 473
VWidth: 1304
GlyphClass: 1
UnlinkRmOvrlpSave: 1
Flags: HMW
LayerCount: 2
Fore
SplineSet
-50 50 m 0
 -49 76 -25 100 0 100 c 0
 68 100 89 119 114 144 c 1
 185 274 l 2
 206 313 234 329 262 329 c 0
 332 329 409 232 409 146 c 0
 409 141 409 135 408 130 c 0
 396 31 355 3 308 3 c 0
 244 3 168 56 134 56 c 0
 129 56 124 55 121 52 c 0
 99 26 65 0 0 -0 c 0
 -25 0 -50 24 -50 50 c 0
164 152 m 1
 206 139 262 102 307 102 c 0
 325 102 342 108 354 124 c 1
 325 189 278 231 240 231 c 0
 222 231 207 222 195 203 c 2
 164 152 l 1
EndSplineSet
Colour: ffda6b
EndChar

StartChar: _.nun.isol
Encoding: 65588 -1 52
GlifName: _.nun.isol
Width: 626
VWidth: 1305
GlyphClass: 1
UnlinkRmOvrlpSave: 1
Flags: HMW
LayerCount: 2
Fore
SplineSet
64 -54 m 0
 64 0 78 65 109 141 c 0
 111 147 117 149 123 149 c 0
 135 149 149 142 149 132 c 0
 149 131 148 129 148 128 c 0
 127 73 119 26 119 -12 c 0
 119 -126 198 -171 288 -171 c 0
 369 -171 458 -134 505 -80 c 1
 505 -77 505 -73 505 -68 c 0
 505 -39 499 28 444 151 c 1
 492 250 l 1
 555 129 562 40 562 6 c 0
 562 1 562 -2 562 -5 c 0
 562 -169 411 -267 276 -267 c 0
 165 -267 64 -202 64 -54 c 0
EndSplineSet
Colour: ffda6b
EndChar

StartChar: _.nun.fina
Encoding: 65589 -1 53
GlifName: _.nun.fina
Width: 681
VWidth: 1413
GlyphClass: 1
UnlinkRmOvrlpSave: 1
Flags: HMW
LayerCount: 2
Fore
SplineSet
64 -54 m 0
 64 0 78 65 109 141 c 0
 111 147 117 149 123 149 c 0
 135 149 149 142 149 132 c 0
 149 131 148 129 148 128 c 0
 127 73 119 26 119 -12 c 0
 119 -126 198 -171 288 -171 c 0
 369 -171 458 -134 505 -80 c 1
 505 -77 505 -73 505 -68 c 0
 505 -39 499 28 444 151 c 1
 492 250 l 1
 497 241 500 234 504 225 c 1
 504 226 l 1
 510 213 l 2
 514 206 516 198 520 191 c 0
 541 143 571 100 655 100 c 2
 681 100 l 1
 681 -0 l 1
 655 -0 l 2
 614 0 585 8 562 23 c 1
 563 9 562 0 562 -5 c 0
 562 -169 411 -267 276 -267 c 0
 165 -267 64 -202 64 -54 c 0
EndSplineSet
Colour: ffda6b
EndChar

StartChar: _.vav.isol
Encoding: 65590 -1 54
GlifName: _.vav.isol
Width: 469
VWidth: 1304
GlyphClass: 1
UnlinkRmOvrlpSave: 1
Flags: HMW
LayerCount: 2
Fore
SplineSet
64 -215 m 0
 64 -206 68 -195 77 -193 c 1
 83 -194 90 -195 97 -195 c 0
 193 -195 311 -115 343 -21 c 1
 343 17 l 1
 312 7 275 0 241 0 c 0
 177 0 121 24 121 102 c 0
 121 120 123 141 130 165 c 0
 151 251 210 302 267 302 c 0
 337 302 405 226 405 46 c 0
 405 43 405 40 405 36 c 0
 405 -21 390 -94 338 -163 c 0
 296 -221 241 -260 200 -260 c 0
 161 -260 113 -243 69 -228 c 1
 66 -225 64 -220 64 -215 c 0
168 123 m 1
 185 106 220 100 257 100 c 0
 282 100 308 103 331 107 c 1
 313 171 278 198 245 198 c 0
 211 198 179 169 168 123 c 1
EndSplineSet
Colour: ffda6b
EndChar

StartChar: _.vav.fina
Encoding: 65591 -1 55
GlifName: _.vav.fina
Width: 469
VWidth: 1304
GlyphClass: 1
UnlinkRmOvrlpSave: 1
Flags: HMW
LayerCount: 2
Fore
SplineSet
64 -215 m 0
 64 -206 68 -195 77 -193 c 1
 83 -194 90 -195 97 -195 c 0
 193 -195 311 -115 343 -21 c 1
 343 -0 l 1
 239 -0 l 2
 176 1 120 26 120 102 c 0
 120 120 123 141 130 165 c 0
 152 251 210 301 267 301 c 0
 329 301 390 241 402 100 c 1
 469 100 l 1
 469 -0 l 1
 402 -0 l 1
 397 -49 380 -108 338 -163 c 0
 296 -221 241 -260 200 -260 c 0
 161 -260 113 -243 69 -228 c 1
 66 -225 64 -220 64 -215 c 0
168 123 m 1
 183 108 209 102 239 100 c 1
 332 100 l 1
 315 169 279 198 245 198 c 0
 211 198 178 169 168 123 c 1
EndSplineSet
Colour: ffda6b
EndChar

StartChar: _.dal.isol
Encoding: 65592 -1 56
GlifName: _.dal.isol
Width: 468
VWidth: 1304
GlyphClass: 1
UnlinkRmOvrlpSave: 1
Flags: HMW
LayerCount: 2
Fore
SplineSet
64 151 m 0
 64 162 72 167 79 167 c 0
 86 167 94 162 94 151 c 0
 94 133 102 100 220 100 c 0
 279 100 326 114 358 135 c 1
 343 198 284 270 197 341 c 2
 161 370 l 1
 206 468 l 1
 241 438 l 2
 342 355 404 268 404 182 c 0
 404 180 404 179 404 177 c 0
 404 70 333 0 211 -0 c 0
 210 0 209 0 208 -0 c 0
 65 0 64 60 64 147 c 0
 64 148 64 150 64 151 c 0
EndSplineSet
Colour: ffda6b
EndChar

StartChar: _.dal.fina
Encoding: 65593 -1 57
GlifName: _.dal.fina
Width: 532
VWidth: 1304
GlyphClass: 1
UnlinkRmOvrlpSave: 1
Flags: HMW
LayerCount: 2
Fore
SplineSet
64 151 m 0
 64 162 72 167 79 167 c 0
 86 167 94 162 94 151 c 0
 94 133 102 100 220 100 c 0
 269 100 309 109 340 125 c 1
 252 375 l 1
 297 471 l 1
 372 256 l 1
 390 199 420 100 532 100 c 1
 532 -0 l 1
 462 0 410 26 373 72 c 1
 342 26 287 0 213 -0 c 0
 211 0 210 0 208 -0 c 0
 65 0 64 60 64 147 c 0
 64 148 64 150 64 151 c 0
EndSplineSet
Colour: ffda6b
EndChar

StartChar: _.ree.isol
Encoding: 65594 -1 58
GlifName: _.ree.isol
Width: 473
VWidth: 1304
GlyphClass: 1
UnlinkRmOvrlpSave: 1
Flags: HMW
LayerCount: 2
Fore
SplineSet
64 -215 m 0
 64 -206 68 -195 77 -193 c 1
 84 -194 90 -195 97 -195 c 0
 200 -195 329 -101 349 4 c 1
 342 40 323 87 285 150 c 1
 333 248 l 1
 389 153 409 80 409 26 c 0
 409 7 406 -10 402 -24 c 1
 377 -147 269 -260 200 -260 c 0
 161 -260 113 -243 69 -228 c 1
 66 -225 64 -220 64 -215 c 0
EndSplineSet
Colour: ffda6b
EndChar

StartChar: _.ree.fina
Encoding: 65595 -1 59
GlifName: _.ree.fina
Width: 523
VWidth: 1304
GlyphClass: 1
UnlinkRmOvrlpSave: 1
Flags: HMW
LayerCount: 2
Fore
SplineSet
64 -215 m 0
 64 -206 68 -195 77 -193 c 1
 84 -194 90 -195 97 -195 c 0
 200 -195 329 -101 349 4 c 1
 342 40 323 87 285 150 c 1
 333 248 l 1
 337 241 340 233 344 226 c 0
 398 131 399 100 523 100 c 1
 523 -0 l 1
 474 0 436 5 406 22 c 1
 406 7 404 -6 402 -17 c 1
 402 -19 l 1
 380 -143 269 -260 200 -260 c 0
 161 -260 113 -243 69 -228 c 1
 66 -225 64 -220 64 -215 c 0
EndSplineSet
Colour: ffda6b
EndChar

StartChar: _.he8.isol
Encoding: 65596 -1 60
GlifName: _.he8.isol
Width: 461
VWidth: 1304
GlyphClass: 1
UnlinkRmOvrlpSave: 1
Flags: HMW
LayerCount: 2
Fore
SplineSet
64 117 m 0
 64 153 77 198 106 250 c 2
 149 327 l 1
 140 334 131 342 122 349 c 1
 166 447 l 1
 247 378 397 272 397 153 c 0
 397 123 388 94 366 63 c 0
 343 30 297 0 213 -0 c 0
 124 0 64 39 64 117 c 0
212 100 m 0
 295 100 327 123 327 152 c 0
 327 192 278 228 193 293 c 1
 135 192 l 1
 129 178 126 166 126 155 c 0
 126 118 162 100 212 100 c 0
EndSplineSet
Colour: ffda6b
EndChar

StartChar: _.he8.fina
Encoding: 65597 -1 61
GlifName: _.he8.fina
Width: 445
VWidth: 1304
GlyphClass: 1
UnlinkRmOvrlpSave: 1
Flags: HMW
LayerCount: 2
Fore
SplineSet
64 156 m 0
 64 189 83 228 127 267 c 2
 212 345 l 1
 208 369 l 1
 258 444 l 1
 274 432 l 1
 310 220 l 2
 325 131 344 100 445 100 c 1
 445 -0 l 1
 353 0 299 35 271 81 c 1
 241 72 212 67 187 67 c 0
 113 67 64 104 64 156 c 0
114 186 m 0
 114 168 139 159 174 159 c 0
 195 159 218 162 242 167 c 1
 220 298 l 1
 143 229 l 2
 123 211 114 197 114 186 c 0
EndSplineSet
Colour: ffda6b
EndChar

StartChar: _.he8.medi
Encoding: 65598 -1 62
GlifName: _.he8.medi
Width: 398
VWidth: 1304
GlyphClass: 1
UnlinkRmOvrlpSave: 1
Flags: HMW
LayerCount: 2
Fore
SplineSet
-50 50 m 0
 -49 76 -25 100 0 100 c 0
 26 100 52 101 77 103 c 1
 91 205 151 338 217 359 c 1
 253 333 277 226 277 192 c 0
 277 158 265 127 245 100 c 1
 398 100 l 1
 398 -0 l 1
 311 -0 l 1
 333 -28 340 -58 340 -87 c 0
 340 -101 338 -115 335 -127 c 0
 323 -192 286 -222 243 -222 c 0
 171 -222 84 -139 71 6 c 1
 49 2 23 0 0 -0 c 0
 -25 0 -50 24 -50 50 c 0
115 107 m 1
 167 114 210 129 242 154 c 1
 236 206 209 260 197 260 c 1
 177 253 145 203 115 107 c 1
117 -9 m 1
 131 -68 168 -119 231 -119 c 0
 249 -119 269 -115 291 -106 c 1
 269 -70 218 -35 117 -9 c 1
EndSplineSet
Colour: ffda6b
EndChar

StartChar: _.he8.init
Encoding: 65599 -1 63
GlifName: _.he8.init
Width: 562
VWidth: 1304
GlyphClass: 1
UnlinkRmOvrlpSave: 1
Flags: HMW
LayerCount: 2
Fore
SplineSet
-50 50 m 0
 -50 75 -26 100 -1 100 c 2
 29 100 l 2
 52 100 80 105 110 114 c 1
 81 139 64 171 64 208 c 0
 64 231 70 256 85 282 c 0
 97 308 126 344 159 372 c 1
 141 384 l 1
 188 481 l 1
 437 319 498 213 498 137 c 0
 498 110 491 88 481 68 c 0
 467 42 435 -30 403 -30 c 0
 402 -30 401 -30 401 -29 c 0
 330 -4 260 24 205 54 c 1
 150 18 86 0 28 -0 c 2
 0 -0 l 1
 -25 1 -50 24 -50 50 c 0
125 250 m 1
 120 224 164 191 221 159 c 1
 251 174 271 187 277 197 c 0
 279 205 280 215 280 227 c 0
 280 256 274 292 252 309 c 1
 252 311 l 1
 243 317 232 320 221 320 c 0
 181 320 138 283 125 250 c 1
332 246 m 1
 323 195 310 163 284 127 c 1
 342 99 401 77 433 68 c 1
 435 74 435 79 435 86 c 0
 435 123 410 175 332 246 c 1
EndSplineSet
Colour: ffda6b
EndChar

StartChar: _.yeh.fina
Encoding: 65600 -1 64
GlifName: _.yeh.fina
Width: 681
VWidth: 1304
GlyphClass: 1
UnlinkRmOvrlpSave: 1
Flags: HMW
LayerCount: 2
Fore
SplineSet
64 -42 m 0
 64 9 77 70 106 141 c 0
 108 147 114 149 120 149 c 0
 132 149 146 142 146 132 c 0
 146 131 145 129 145 128 c 0
 127 79 119 37 119 1 c 0
 119 -123 215 -171 317 -171 c 0
 365 -171 415 -160 456 -142 c 0
 473 -136 484 -126 484 -113 c 0
 484 -92 453 -62 355 -26 c 0
 348 -23 344 -16 344 -7 c 0
 344 29 392 100 413 100 c 2
 681 100 l 1
 681 -0 l 1
 505 -0 l 1
 551 -34 568 -68 568 -99 c 0
 568 -141 537 -177 504 -200 c 0
 450 -244 375 -267 303 -267 c 0
 180 -267 64 -198 64 -42 c 0
EndSplineSet
Colour: ffda6b
EndChar

StartChar: _.yeh.isol
Encoding: 65601 -1 65
GlifName: _.yeh.isol
Width: 691
VWidth: 1304
GlyphClass: 1
UnlinkRmOvrlpSave: 1
Flags: HMW
LayerCount: 2
Fore
SplineSet
64 -22 m 0
 64 29 77 90 106 161 c 0
 108 167 114 170 120 170 c 0
 132 170 146 161 146 151 c 0
 146 150 145 149 145 148 c 0
 126 99 118 56 118 20 c 0
 118 -103 215 -151 317 -151 c 0
 364 -151 412 -140 452 -123 c 1
 497 -98 539 -63 539 -36 c 0
 539 -15 522 0 472 -0 c 2
 372 -0 l 2
 333 0 315 18 315 60 c 0
 315 78 318 100 325 128 c 0
 348 220 419 341 531 341 c 0
 580 341 616 292 627 253 c 1
 608 218 l 1
 591 237 559 247 536 247 c 0
 532 247 529 247 526 246 c 0
 447 232 388 160 371 100 c 1
 459 100 l 2
 553 100 597 45 597 -20 c 0
 597 -65 550 -150 504 -180 c 1
 450 -224 375 -247 303 -247 c 0
 180 -247 64 -178 64 -22 c 0
EndSplineSet
Colour: ffda6b
EndChar

StartChar: _.hamze.isol
Encoding: 65602 -1 66
GlifName: _.hamze.isol
Width: 462
VWidth: 1304
GlyphClass: 2
Flags: HMW
LayerCount: 2
Fore
SplineSet
345 247 m 1
 309 273 276 283 244 283 c 0
 211 283 139 257 139 234 c 0
 139 175 214 155 276 155 c 0
 312 155 354 158 398 168 c 1
 362 84 l 1
 230 66 122 37 68 -0 c 1
 64 44 l 1
 84 62 145 92 154 93 c 1
 154 100 68 151 68 226 c 0
 68 301 178 363 233 363 c 0
 288 363 350 303 371 269 c 1
 345 247 l 1
EndSplineSet
Colour: ffda6b
EndChar

StartChar: _.keshide.medi
Encoding: 65603 -1 67
GlifName: _.keshide.medi
Width: 235
VWidth: 1304
GlyphClass: 2
Flags: HMW
LayerCount: 2
Fore
SplineSet
-12 100 m 2
 235 100 l 1
 235 0 l 1
 -12 0 l 2
 -37 0 -50 25 -50 50 c 0
 -50 75 -37 100 -12 100 c 2
EndSplineSet
Colour: ffda6b
EndChar

StartChar: _.dot.1u
Encoding: 65604 -1 68
GlifName: _.dot.1u
Width: 0
VWidth: 1304
GlyphClass: 2
Flags: HMW
LayerCount: 2
Fore
SplineSet
0 48 m 1
 57 120 l 1
 124 68 l 1
 68 -5 l 1
 0 48 l 1
EndSplineSet
Colour: ffda6b
EndChar

StartChar: _.dot.2u
Encoding: 65605 -1 69
GlifName: _.dot.2u
Width: 0
VWidth: 1304
GlyphClass: 2
UnlinkRmOvrlpSave: 1
Flags: HMW
LayerCount: 2
Fore
SplineSet
0 48 m 1
 57 120 l 1
 124 68 l 1
 68 -5 l 1
 0 48 l 1
140 48 m 1
 197 120 l 1
 265 68 l 1
 208 -5 l 1
 140 48 l 1
EndSplineSet
Colour: ffda6b
EndChar

StartChar: _.dot.3u
Encoding: 65606 -1 70
GlifName: _.dot.3u
Width: 0
VWidth: 1304
GlyphClass: 2
UnlinkRmOvrlpSave: 1
Flags: HMW
LayerCount: 2
Fore
SplineSet
0 48 m 1
 57 120 l 1
 124 68 l 1
 68 -5 l 1
 0 48 l 1
80 178 m 1
 137 251 l 1
 204 197 l 1
 148 125 l 1
 80 178 l 1
150 48 m 1
 207 120 l 1
 275 68 l 1
 218 -5 l 1
 150 48 l 1
EndSplineSet
Colour: ffda6b
EndChar

StartChar: _.dot.1d
Encoding: 65607 -1 71
GlifName: _.dot.1d
Width: 0
VWidth: 1304
GlyphClass: 2
Flags: HMW
LayerCount: 2
Fore
SplineSet
0 -72 m 1
 57 -0 l 1
 126 -53 l 1
 68 -125 l 1
 0 -72 l 1
EndSplineSet
Colour: ffda6b
EndChar

StartChar: _.dot.2d
Encoding: 65608 -1 72
GlifName: _.dot.2d
Width: 0
VWidth: 1304
GlyphClass: 2
UnlinkRmOvrlpSave: 1
Flags: HMW
LayerCount: 2
Fore
SplineSet
0 -72 m 1
 57 -0 l 1
 126 -53 l 1
 68 -125 l 1
 0 -72 l 1
150 -72 m 1
 207 -0 l 1
 276 -53 l 1
 218 -125 l 1
 150 -72 l 1
EndSplineSet
Colour: ffda6b
EndChar

StartChar: _.dot.3d
Encoding: 65609 -1 73
GlifName: _.dot.3d
Width: 0
VWidth: 1304
GlyphClass: 2
UnlinkRmOvrlpSave: 1
Flags: HMW
LayerCount: 2
Fore
SplineSet
0 -72 m 1
 57 -0 l 1
 126 -53 l 1
 68 -125 l 1
 0 -72 l 1
70 -171 m 1
 127 -100 l 1
 195 -153 l 1
 138 -224 l 1
 70 -171 l 1
150 -72 m 1
 207 -0 l 1
 276 -53 l 1
 218 -125 l 1
 150 -72 l 1
EndSplineSet
Colour: ffda6b
EndChar

StartChar: _.num.0
Encoding: 65611 -1 75
GlifName: _.num.0
Width: 350
VWidth: 1424
GlyphClass: 2
Flags: HMW
LayerCount: 2
Fore
SplineSet
176 407 m 0
 130 407 101 379 101 329 c 0
 101 275 133 250 176 250 c 0
 220 250 251 279 251 329 c 0
 251 379 220 407 176 407 c 0
300 326 m 0
 300 241 250 194 176 194 c 0
 100 195 50 244 50 326 c 0
 50 411 99 468 173 468 c 0
 174 468 175 468 176 468 c 0
 254 468 300 406 300 326 c 0
EndSplineSet
Colour: ffda6b
EndChar

StartChar: _.num.1
Encoding: 65612 -1 76
GlifName: _.num.1
Width: 332
VWidth: 1331
GlyphClass: 2
Flags: HMW
LayerCount: 2
Fore
SplineSet
75 688 m 1
 172 800 l 1
 245 544 257 346 257 181 c 0
 257 116 255 56 255 -0 c 1
 170 -25 l 1
 171 5 171 36 171 67 c 0
 171 264 154 469 75 688 c 1
EndSplineSet
Colour: ffda6b
EndChar

StartChar: _.num.2
Encoding: 65613 -1 77
GlifName: _.num.2
Width: 611
VWidth: 1331
GlyphClass: 2
Flags: HMW
LayerCount: 2
Fore
SplineSet
354 576 m 0
 427 576 468 659 468 731 c 0
 468 735 468 739 468 743 c 0
 468 753 489 761 508 761 c 0
 522 761 534 756 535 742 c 0
 535 736 536 730 536 724 c 0
 536 530 433 432 330 432 c 0
 300 432 269 440 242 457 c 1
 254 355 257 263 257 180 c 0
 257 115 256 56 255 -0 c 1
 170 -25 l 1
 171 5 171 36 171 67 c 0
 171 264 154 469 75 688 c 1
 172 800 l 1
 181 773 187 747 194 721 c 1
 194 714 l 1
 214 638 273 576 354 576 c 0
EndSplineSet
Colour: ffda6b
EndChar

StartChar: _.num.3
Encoding: 65614 -1 78
GlifName: _.num.3
Width: 831
VWidth: 1331
GlyphClass: 2
Flags: HMW
LayerCount: 2
Fore
SplineSet
728 800 m 0
 753 800 756 787 756 762 c 0
 756 568 652 471 549 471 c 0
 519 471 490 479 463 495 c 1
 426 453 378 432 330 432 c 0
 300 432 269 440 242 457 c 1
 254 355 257 263 257 180 c 0
 257 115 256 56 255 -0 c 1
 170 -25 l 1
 171 5 171 36 171 67 c 0
 171 264 154 469 75 688 c 1
 172 800 l 1
 181 773 187 747 194 721 c 1
 194 714 l 1
 214 638 273 576 354 576 c 0
 427 576 468 659 468 731 c 0
 468 735 468 739 468 743 c 0
 468 753 489 761 508 761 c 0
 532 761 536 750 536 726 c 0
 536 688 532 653 524 623 c 1
 539 618 557 615 575 615 c 0
 647 615 688 701 688 773 c 0
 688 776 688 779 688 782 c 0
 688 791 709 800 728 800 c 0
EndSplineSet
Colour: ffda6b
EndChar

StartChar: _.num.4.fa
Encoding: 65615 -1 79
GlifName: _.num.4.fa
Width: 658
VWidth: 1331
GlyphClass: 2
Flags: HMW
LayerCount: 2
Fore
SplineSet
75 688 m 1
 172 800 l 1
 202 698 222 604 234 519 c 1
 241 517 249 515 256 514 c 1
 238 548 227 593 227 633 c 0
 227 645 228 656 230 667 c 0
 230 669 230 672 231 674 c 0
 255 754 334 801 419 801 c 0
 469 801 521 785 566 751 c 1
 545 698 l 1
 517 705 486 710 454 710 c 0
 396 710 337 696 297 660 c 1
 303 600 351 517 394 508 c 1
 457 514 521 533 583 560 c 1
 572 477 l 1
 493 440 412 419 325 419 c 0
 299 419 273 421 246 425 c 1
 255 338 257 259 257 187 c 0
 257 120 256 58 255 -0 c 1
 170 -25 l 1
 171 5 171 36 171 67 c 0
 171 264 154 469 75 688 c 1
EndSplineSet
Colour: ffda6b
EndChar

StartChar: _.num.5.fa
Encoding: 65617 -1 81
GlifName: _.num.5.fa
Width: 657
VWidth: 1331
GlyphClass: 2
Flags: HMW
LayerCount: 2
Fore
SplineSet
321 86 m 1
 296 33 229 0 170 0 c 0
 107 0 50 41 50 142 c 0
 50 178 57 222 74 274 c 0
 117 406 201 556 246 642 c 1
 236 654 227 666 216 679 c 1
 271 799 l 1
 312 734 498 504 574 311 c 0
 597 252 607 202 607 160 c 0
 607 50 540 -8 463 -8 c 0
 407 -8 354 24 321 86 c 1
481 102 m 0
 509 102 529 118 529 159 c 0
 529 225 473 357 291 588 c 1
 168 375 126 246 126 176 c 0
 126 121 149 103 184 103 c 0
 234 103 276 130 291 213 c 1
 337 226 l 1
 358 164 407 102 481 102 c 0
EndSplineSet
Colour: ffda6b
EndChar

StartChar: _.num.6.fa
Encoding: 65619 -1 83
GlifName: _.num.6.fa
Width: 794
VWidth: 1331
GlyphClass: 2
Flags: HMW
LayerCount: 2
Fore
SplineSet
75 43 m 1
 166 128 264 230 406 335 c 1
 342 374 264 457 264 552 c 0
 264 569 267 586 272 603 c 0
 290 660 315 793 518 793 c 0
 559 793 608 788 665 775 c 1
 641 698 l 1
 555 693 386 666 348 585 c 1
 359 517 438 430 514 409 c 1
 574 448 643 486 719 525 c 1
 703 377 l 1
 456 272 275 121 114 -37 c 1
 75 43 l 1
EndSplineSet
Colour: ffda6b
EndChar

StartChar: _.num.6.ar
Encoding: 65620 -1 84
GlifName: _.num.6.ar
Width: 666
VWidth: 1331
GlyphClass: 2
Flags: HMW
LayerCount: 2
Fore
SplineSet
75 737 m 0
 75 782 85 797 97 797 c 0
 106 797 117 787 122 778 c 0
 143 741 180 722 238 721 c 0
 243 721 272 725 322 731 c 0
 372 737 411 741 434 741 c 0
 468 741 486 724 486 690 c 0
 486 356 521 180 591 128 c 1
 585 82 572 43 560 -1 c 1
 513 38 482 80 466 124 c 0
 439 190 427 304 427 492 c 2
 427 576 l 2
 427 604 422 621 412 623 c 1
 224 604 l 1
 124 604 75 648 75 737 c 0
EndSplineSet
Colour: ffda6b
EndChar

StartChar: _.num.7
Encoding: 65621 -1 85
GlifName: _.num.7
Width: 696
VWidth: 1331
GlyphClass: 2
Flags: HMW
LayerCount: 2
Fore
SplineSet
78 672 m 2
 127 770 l 1
 143 767 l 1
 243 611 311 446 347 287 c 1
 384 446 453 611 553 767 c 1
 569 770 l 1
 618 672 l 2
 620 667 623 663 617 652 c 0
 464 418 397 230 379 6 c 1
 319 -35 l 1
 305 206 240 403 79 652 c 0
 73 663 76 667 78 672 c 2
EndSplineSet
Colour: ffda6b
EndChar

StartChar: _.num.8
Encoding: 65622 -1 86
GlifName: _.num.8
Width: 696
VWidth: 1331
GlyphClass: 2
Flags: HMW
LayerCount: 2
Fore
SplineSet
78 74 m 2
 76 79 73 82 79 93 c 0
 240 342 305 539 319 780 c 1
 379 740 l 1
 397 517 464 327 617 93 c 0
 623 82 620 79 618 74 c 2
 569 -25 l 1
 553 -21 l 1
 453 135 384 300 347 459 c 1
 311 300 243 135 143 -21 c 1
 127 -25 l 1
 78 74 l 2
EndSplineSet
Colour: ffda6b
EndChar

StartChar: _.num.9
Encoding: 65623 -1 87
GlifName: _.num.9
Width: 630
VWidth: 1331
GlyphClass: 2
Flags: HMW
LayerCount: 2
Fore
SplineSet
75 495 m 0
 75 509 76 523 78 537 c 0
 100 699 181 770 246 770 c 0
 312 770 402 689 414 524 c 0
 426 358 409 160 555 76 c 1
 488 -21 l 1
 413 31 350 83 343 349 c 1
 311 335 258 327 227 327 c 0
 122 331 75 405 75 495 c 0
239 641 m 0
 188 641 136 586 136 535 c 0
 136 491 191 454 231 454 c 0
 232 454 232 454 233 454 c 0
 275 454 313 464 339 476 c 1
 334 546 292 641 239 641 c 0
EndSplineSet
Colour: ffda6b
EndChar

StartChar: _.sing.backslash
Encoding: 65624 -1 88
GlifName: _.sing.backslash
Width: 551
VWidth: 1197
GlyphClass: 2
Flags: HMW
LayerCount: 2
Fore
SplineSet
50 770 m 0
 50 790 59 800 76 800 c 0
 82 800 95 790 113 770 c 0
 178 686 250 574 326 432 c 0
 402 290 460 162 501 50 c 1
 501 40 l 2
 501 20 492 11 477 11 c 0
 463 11 444 24 439 34 c 0
 338 268 213 502 60 737 c 0
 53 749 50 760 50 770 c 0
EndSplineSet
Colour: ffda6b
EndChar

StartChar: _.sing.slash
Encoding: 65625 -1 89
GlifName: _.sing.slash
Width: 551
VWidth: 1197
GlyphClass: 2
Flags: HMW
LayerCount: 2
Fore
SplineSet
50 40 m 0
 50 49 53 62 60 74 c 0
 213 309 338 543 439 777 c 0
 444 787 463 800 477 800 c 0
 492 800 501 790 501 770 c 2
 501 761 l 1
 460 649 402 521 326 378 c 0
 250 236 178 124 113 40 c 0
 95 20 82 11 76 11 c 0
 59 11 50 20 50 40 c 0
EndSplineSet
Colour: ffda6b
EndChar

StartChar: _.sing.tajob
Encoding: 65626 -1 90
GlifName: _.sing.tajob
Width: 242
VWidth: 1197
GlyphClass: 2
Flags: HMW
LayerCount: 2
Fore
SplineSet
50 68 m 0
 50 107 81 139 120 139 c 0
 159 139 192 107 192 68 c 0
 192 29 159 -4 120 -4 c 0
 81 -4 50 29 50 68 c 0
67 679 m 1
 67 717 94 739 120 739 c 0
 145 739 169 720 171 679 c 1
 166 557 153 340 142 218 c 0
 140 213 130 210 121 210 c 0
 112 210 104 213 103 218 c 0
 94 357 74 556 67 679 c 1
EndSplineSet
Colour: ffda6b
EndChar

StartChar: _.sing.soal
Encoding: 65627 -1 91
GlifName: _.sing.soal
Width: 437
VWidth: 1304
GlyphClass: 2
Flags: HMW
LayerCount: 2
Fore
SplineSet
50 573 m 0
 50 671 130 752 231 752 c 0
 278 752 328 734 378 694 c 1
 384 691 387 686 387 680 c 0
 387 656 350 612 330 612 c 0
 328 612 327 612 326 613 c 0
 304 634 270 645 238 645 c 0
 189 645 143 621 143 578 c 0
 143 549 164 510 222 464 c 0
 278 418 310 373 310 329 c 0
 310 274 260 221 149 170 c 1
 130 197 l 1
 185 250 218 284 218 314 c 0
 218 332 206 349 178 369 c 0
 87 432 50 507 50 573 c 0
145 71 m 0
 145 105 171 134 207 134 c 0
 246 134 267 102 267 70 c 0
 267 39 248 8 209 8 c 0
 173 8 145 35 145 71 c 0
EndSplineSet
Colour: ffda6b
EndChar

StartChar: _.sing.beezafeh
Encoding: 65628 -1 92
GlifName: _.sing.beezafeh
Width: 558
VWidth: 1352
GlyphClass: 2
Flags: HMW
LayerCount: 2
Fore
SplineSet
50 236 m 0
 50 258 59 280 79 280 c 2
 239 280 l 1
 239 439 l 2
 239 459 262 469 285 469 c 0
 307 469 329 459 329 439 c 2
 329 280 l 1
 479 280 l 2
 498 280 508 258 508 235 c 0
 508 213 499 191 479 191 c 2
 329 191 l 1
 329 39 l 2
 329 20 306 11 284 11 c 0
 262 11 239 20 239 39 c 2
 239 191 l 1
 79 191 l 2
 60 191 50 213 50 236 c 0
EndSplineSet
Colour: ffda6b
EndChar

StartChar: _.sing.menha
Encoding: 65629 -1 93
GlifName: _.sing.menha
Width: 558
VWidth: 0
GlyphClass: 2
Flags: HMW
LayerCount: 2
Fore
SplineSet
50 236 m 0
 50 258 59 280 79 280 c 2
 479 280 l 2
 498 280 508 258 508 235 c 0
 508 213 499 191 479 191 c 2
 79 191 l 2
 60 191 50 213 50 236 c 0
EndSplineSet
Colour: ffda6b
EndChar

StartChar: _.sing.virgul
Encoding: 65631 -1 95
GlifName: _.sing.virgul
Width: 239
VWidth: 1197
GlyphClass: 2
Flags: HMW
LayerCount: 2
Fore
SplineSet
50 94 m 0
 50 149 88 214 173 241 c 1
 182 208 l 1
 155 197 116 159 117 125 c 1
 121 126 126 127 130 127 c 0
 161 127 189 100 189 70 c 0
 189 36 163 10 124 10 c 0
 76 10 50 48 50 94 c 0
EndSplineSet
Colour: ffda6b
EndChar

StartChar: _.sing.dot_virgul
Encoding: 65632 -1 96
GlifName: _.sing.dot_virgul
Width: 242
VWidth: 1304
GlyphClass: 2
Flags: HMW
LayerCount: 2
Fore
SplineSet
50 82 m 0
 50 121 82 154 121 154 c 0
 160 154 192 121 192 82 c 0
 192 44 160 12 121 12 c 0
 82 12 50 44 50 82 c 0
51 285 m 0
 51 339 88 404 173 431 c 1
 183 399 l 1
 156 387 118 349 119 315 c 1
 124 316 128 317 133 317 c 0
 163 317 189 291 189 261 c 0
 189 227 164 200 125 200 c 0
 77 200 51 239 51 285 c 0
EndSplineSet
Colour: ffda6b
EndChar

StartChar: _.sing.2noqte
Encoding: 65633 -1 97
GlifName: _.sing.2noqte
Width: 242
VWidth: 1352
GlyphClass: 2
Flags: HMW
LayerCount: 2
Fore
SplineSet
50 82 m 0
 50 121 82 154 121 154 c 0
 160 154 192 121 192 82 c 0
 192 44 160 12 121 12 c 0
 82 12 50 44 50 82 c 0
50 303 m 0
 50 342 82 374 121 374 c 0
 160 374 192 342 192 303 c 0
 192 264 160 232 121 232 c 0
 82 232 50 264 50 303 c 0
EndSplineSet
Colour: ffda6b
EndChar

StartChar: _.sing.noqte
Encoding: 65634 -1 98
GlifName: _.sing.noqte
Width: 242
VWidth: 1352
GlyphClass: 2
Flags: HMW
LayerCount: 2
Fore
SplineSet
50 71 m 0
 50 110 81 141 120 141 c 0
 159 141 192 110 192 71 c 0
 192 32 159 0 120 -0 c 0
 81 0 50 32 50 71 c 0
EndSplineSet
Colour: ffda6b
EndChar

StartChar: _.sing.gheiomeh.right
Encoding: 65635 -1 99
GlifName: _.sing.gheiomeh.right
Width: 370
VWidth: 1352
GlyphClass: 2
Flags: HMW
LayerCount: 2
Fore
SplineSet
50 235 m 0
 50 320 83 406 164 454 c 0
 170 455 176 443 175 442 c 0
 135 376 118 303 118 233 c 0
 118 152 141 73 180 12 c 0
 181 10 177 -1 168 -0 c 0
 97 35 50 134 50 235 c 0
190 235 m 0
 190 320 224 406 305 454 c 0
 311 455 316 443 315 442 c 0
 276 376 258 304 258 234 c 0
 258 153 281 73 319 12 c 0
 321 10 317 -1 308 -0 c 0
 237 35 190 134 190 235 c 0
EndSplineSet
Colour: ffda6b
EndChar

StartChar: _.sing.gheiomeh.left
Encoding: 65636 -1 100
GlifName: _.sing.gheiomeh.left
Width: 370
VWidth: 1352
GlyphClass: 2
Flags: HMW
LayerCount: 2
Fore
SplineSet
51 12 m 0
 89 74 112 152 112 234 c 0
 112 304 95 377 55 442 c 0
 54 443 59 455 65 454 c 0
 146 406 180 320 180 235 c 0
 180 134 133 35 62 -0 c 0
 55 -1 49 10 51 12 c 0
190 12 m 0
 229 74 252 152 252 234 c 0
 252 304 235 377 196 442 c 0
 195 443 200 455 206 454 c 0
 287 406 320 320 320 235 c 0
 320 134 273 35 202 -0 c 0
 193 -1 189 10 190 12 c 0
EndSplineSet
Colour: ffda6b
EndChar

StartChar: _.sing.parantez.right
Encoding: 65637 -1 101
GlifName: _.sing.parantez.right
Width: 308
VWidth: 1352
GlyphClass: 2
Flags: HMW
LayerCount: 2
Fore
SplineSet
50 397 m 0
 50 550 108 704 220 800 c 1
 257 775 l 1
 175 678 133 539 133 399 c 0
 133 260 174 120 258 24 c 1
 221 -0 l 1
 106 94 50 245 50 397 c 0
EndSplineSet
Colour: ffda6b
EndChar

StartChar: _.sing.parantez.left
Encoding: 65638 -1 102
GlifName: _.sing.parantez.left
Width: 308
VWidth: 1352
GlyphClass: 2
Flags: HMW
LayerCount: 2
Fore
SplineSet
50 24 m 1
 134 120 175 260 175 399 c 0
 175 539 133 678 51 775 c 1
 88 800 l 1
 200 704 258 550 258 397 c 0
 258 245 202 94 87 -0 c 1
 50 24 l 1
EndSplineSet
Colour: ffda6b
EndChar

StartChar: _.sing.koroshe.right
Encoding: 65641 -1 105
GlifName: _.sing.koroshe.right
Width: 280
VWidth: 1197
GlyphClass: 2
Flags: HMW
LayerCount: 2
Fore
SplineSet
50 -61 m 1
 50 800 l 1
 230 800 l 1
 230 740 l 1
 130 740 l 1
 130 -0 l 1
 230 -0 l 1
 230 -61 l 1
 50 -61 l 1
EndSplineSet
Colour: ffda6b
EndChar

StartChar: _.sing.koroshe.left
Encoding: 65642 -1 106
GlifName: _.sing.koroshe.left
Width: 280
VWidth: 1197
GlyphClass: 2
Flags: HMW
LayerCount: 2
Fore
SplineSet
50 -0 m 1
 150 -0 l 1
 150 740 l 1
 50 740 l 1
 50 800 l 1
 230 800 l 1
 230 -61 l 1
 50 -61 l 1
 50 -0 l 1
EndSplineSet
Colour: ffda6b
EndChar

StartChar: _.sing.akolad.right
Encoding: 65643 -1 107
GlifName: _.sing.akolad.right
Width: 357
VWidth: 1197
GlyphClass: 2
Flags: HMW
LayerCount: 2
Fore
SplineSet
50 346 m 1
 50 364 50 383 50 401 c 1
 116 402 126 432 126 500 c 2
 126 676 l 2
 126 800 178 800 307 800 c 1
 307 751 l 1
 232 751 210 747 210 682 c 2
 210 502 l 2
 210 436 194 388 135 373 c 1
 194 359 210 312 210 244 c 2
 210 64 l 2
 210 -1 232 -4 307 -5 c 1
 307 -54 l 1
 178 -54 126 -54 126 70 c 2
 126 246 l 2
 126 314 116 344 50 346 c 1
EndSplineSet
Colour: ffda6b
EndChar

StartChar: _.sing.akolad.left
Encoding: 65644 -1 108
GlifName: _.sing.akolad.left
Width: 357
VWidth: 1197
GlyphClass: 2
Flags: HMW
LayerCount: 2
Fore
SplineSet
50 -5 m 1
 125 -4 147 -1 147 64 c 2
 147 244 l 2
 147 312 162 359 221 373 c 1
 162 388 147 436 147 502 c 2
 147 682 l 2
 147 747 125 751 50 751 c 1
 50 800 l 1
 178 800 230 800 230 676 c 2
 230 500 l 2
 230 432 239 402 307 401 c 1
 307 383 307 364 307 346 c 1
 239 344 230 314 230 246 c 2
 230 70 l 2
 230 -54 178 -54 50 -54 c 1
 50 -5 l 1
EndSplineSet
Colour: ffda6b
EndChar

StartChar: _.mark.maad
Encoding: 65645 -1 109
GlifName: _.mark.maad
Width: 0
VWidth: 1352
GlyphClass: 2
Flags: HMW
LayerCount: 2
Fore
SplineSet
0 -1 m 1
 15 70 46 84 84 84 c 0
 110 84 138 78 167 78 c 0
 192 78 217 83 239 101 c 1
 217 35 182 21 144 21 c 0
 115 21 84 29 58 29 c 0
 35 29 15 23 0 -1 c 1
EndSplineSet
Colour: ffda6b
EndChar

StartChar: _.mark.fatheh
Encoding: 65646 -1 110
GlifName: _.mark.fatheh
Width: 0
VWidth: 2310
GlyphClass: 2
Flags: HMW
LayerCount: 2
Fore
SplineSet
0 -3 m 1
 0 59 l 1
 261 146 l 1
 261 86 l 1
 0 -3 l 1
EndSplineSet
Colour: ffda6b
EndChar

StartChar: _.mark.kasreh
Encoding: 65647 -1 111
GlifName: _.mark.kasreh
Width: 0
VWidth: 2384
GlyphClass: 2
Flags: HMW
LayerCount: 2
Fore
SplineSet
0 -91 m 1
 261 -4 l 1
 261 -64 l 1
 0 -152 l 1
 0 -91 l 1
EndSplineSet
Colour: ffda6b
EndChar

StartChar: _.mark.zameh
Encoding: 65648 -1 112
GlifName: _.mark.zameh
Width: 0
VWidth: 2277
GlyphClass: 2
Flags: HMW
LayerCount: 2
Fore
SplineSet
153 320 m 0
 188 320 223 284 223 218 c 0
 223 191 216 166 203 144 c 1
 215 142 227 140 241 140 c 1
 223 80 l 1
 201 82 179 86 162 91 c 1
 115 44 53 14 20 -0 c 1
 0 60 l 1
 42 77 75 96 102 113 c 1
 59 137 43 168 43 200 c 0
 43 260 102 320 153 320 c 0
86 213 m 0
 86 192 103 169 153 154 c 1
 173 174 181 189 181 200 c 0
 175 242 154 258 133 258 c 0
 109 258 86 237 86 213 c 0
EndSplineSet
Colour: ffda6b
EndChar

StartChar: _.mark.tanvin_fatheh
Encoding: 65649 -1 113
GlifName: _.mark.tanvin_fatheh
Width: 0
VWidth: 2280
GlyphClass: 2
Flags: HMW
LayerCount: 2
Fore
SplineSet
0 -3 m 1
 0 59 l 1
 261 146 l 1
 261 86 l 1
 0 -3 l 1
0 108 m 1
 0 170 l 1
 261 257 l 1
 261 196 l 1
 0 108 l 1
EndSplineSet
Colour: ffda6b
EndChar

StartChar: _.mark.tanvin_kasreh
Encoding: 65650 -1 114
GlifName: _.mark.tanvin_kasreh
Width: 0
VWidth: 2413
GlyphClass: 2
Flags: HMW
LayerCount: 2
Fore
SplineSet
0 -91 m 1
 261 -4 l 1
 261 -64 l 1
 0 -152 l 1
 0 -91 l 1
0 -201 m 1
 261 -113 l 1
 261 -175 l 1
 0 -262 l 1
 0 -201 l 1
EndSplineSet
Colour: ffda6b
EndChar

StartChar: _.mark.tanvin_zameh
Encoding: 65651 -1 115
GlifName: _.mark.tanvin_zameh
Width: 0
VWidth: 2273
GlyphClass: 2
Flags: HMW
LayerCount: 2
Fore
SplineSet
0 180 m 0
 0 256 54 328 162 396 c 1
 206 396 l 1
 206 393 l 1
 110 319 64 263 64 224 c 0
 64 185 86 162 129 157 c 1
 125 115 105 95 69 95 c 0
 30 97 0 139 0 180 c 0
233 320 m 0
 268 320 303 284 303 218 c 0
 303 191 296 166 283 144 c 1
 295 142 307 140 321 140 c 1
 303 80 l 1
 281 82 260 86 243 91 c 1
 196 44 133 14 100 -0 c 1
 80 60 l 1
 122 77 155 96 182 113 c 1
 139 137 123 168 123 200 c 0
 123 260 182 320 233 320 c 0
166 213 m 0
 166 192 183 169 233 154 c 1
 253 174 261 189 261 200 c 0
 255 242 235 258 214 258 c 0
 190 258 166 237 166 213 c 0
EndSplineSet
Colour: ffda6b
EndChar

StartChar: _.mark.tashdid
Encoding: 65652 -1 116
GlifName: _.mark.tashdid
Width: 0
VWidth: 1833
GlyphClass: 2
Flags: HMW
LayerCount: 2
Fore
SplineSet
0 104 m 0
 0 118 2 133 6 148 c 1
 45 176 l 1
 43 163 42 151 42 140 c 0
 42 94 61 71 80 71 c 0
 97 71 114 91 114 128 c 0
 114 143 112 160 106 180 c 1
 146 200 l 1
 161 133 185 109 203 109 c 0
 218 109 229 126 229 150 c 0
 229 169 222 192 204 216 c 1
 244 253 l 1
 272 208 283 166 283 130 c 0
 283 70 250 29 208 29 c 0
 191 29 173 35 155 49 c 1
 133 13 105 -2 80 -2 c 0
 37 -2 0 42 0 104 c 0
EndSplineSet
Colour: ffda6b
EndChar

StartChar: _.mark.hamze
Encoding: 65653 -1 117
GlifName: _.mark.hamze
Width: 0
VWidth: 1841
GlyphClass: 2
Flags: HMW
LayerCount: 2
Fore
SplineSet
117 185 m 0
 86 185 49 177 49 148 c 0
 49 109 168 109 231 108 c 1
 227 101 218 85 202 58 c 1
 121 41 57 15 9 -6 c 1
 18 40 l 1
 25 46 46 55 58 59 c 1
 58 63 l 1
 19 74 0 93 0 120 c 0
 0 187 70 251 130 251 c 0
 177 251 204 210 204 185 c 0
 204 176 200 171 193 171 c 0
 190 171 186 173 182 175 c 0
 174 180 145 185 117 185 c 0
EndSplineSet
Colour: ffda6b
EndChar

StartChar: _.mark.sakon
Encoding: 65654 -1 118
GlifName: _.mark.sakon
Width: 0
VWidth: 2099
GlyphClass: 2
Flags: HMW
LayerCount: 2
Fore
SplineSet
0 98 m 1
 0 198 65 241 123 241 c 0
 165 241 202 219 208 180 c 0
 209 171 210 161 210 152 c 0
 210 64 146 -1 49 -1 c 1
 32 17 l 1
 106 56 153 98 174 139 c 1
 158 147 142 150 126 150 c 0
 85 150 47 127 20 92 c 1
 0 98 l 1
EndSplineSet
Colour: ffda6b
EndChar

StartChar: _.mark.alef
Encoding: 65655 -1 119
GlifName: _.mark.alef
Width: 0
VWidth: 2091
GlyphClass: 2
Flags: HMW
LayerCount: 2
Fore
SplineSet
0 186 m 1
 46 240 l 1
 60 180 71 110 71 69 c 0
 71 30 40 10 31 -0 c 1
 31 42 20 111 0 186 c 1
EndSplineSet
Colour: ffda6b
EndChar

StartChar: _.sing.momaiez
Encoding: 65656 -1 120
GlifName: _.sing.momaiez
Width: 375
VWidth: 1352
GlyphClass: 2
Flags: HMW
LayerCount: 2
Fore
SplineSet
50 -105 m 1
 272 402 l 1
 325 402 l 1
 99 -115 l 1
 50 -105 l 1
EndSplineSet
Colour: ffda6b
EndChar

StartChar: _.sing.darsad
Encoding: 65658 -1 122
GlifName: _.sing.darsad
Width: 577
VWidth: 1197
GlyphClass: 2
Flags: HMW
LayerCount: 2
Fore
SplineSet
50 631 m 0
 50 673 82 706 125 706 c 0
 172 706 197 667 197 629 c 0
 197 592 174 556 128 556 c 0
 84 556 50 589 50 631 c 0
67 28 m 0
 67 43 71 56 78 65 c 0
 231 298 358 533 459 768 c 0
 465 783 475 791 487 791 c 0
 508 791 519 780 519 757 c 2
 519 753 l 1
 487 659 431 542 355 394 c 0
 279 248 204 126 129 34 c 0
 113 14 99 5 87 5 c 0
 73 5 67 13 67 28 c 0
380 151 m 0
 380 193 413 226 455 226 c 0
 503 226 527 187 527 149 c 0
 527 112 504 76 457 76 c 0
 414 76 380 109 380 151 c 0
EndSplineSet
Colour: ffda6b
EndChar

StartChar: _.sing.mosavi
Encoding: 65659 -1 123
GlifName: _.sing.mosavi
Width: 558
VWidth: 1197
GlyphClass: 2
Flags: HMW
LayerCount: 2
Fore
SplineSet
50 176 m 0
 50 198 59 220 79 220 c 2
 479 220 l 2
 498 220 508 198 508 175 c 0
 508 153 499 130 479 130 c 2
 79 130 l 2
 60 130 50 153 50 176 c 0
50 356 m 0
 50 378 59 400 79 400 c 2
 479 400 l 2
 498 400 508 377 508 354 c 0
 508 332 499 310 479 310 c 2
 79 310 l 2
 60 310 50 333 50 356 c 0
EndSplineSet
Colour: ffda6b
EndChar

StartChar: _.beh_k.init
Encoding: 65661 -1 125
GlifName: _.beh_k.init
Width: 302
VWidth: 1197
GlyphClass: 2
UnlinkRmOvrlpSave: 1
Flags: HMW
LayerCount: 2
Fore
SplineSet
-50 48 m 0
 -50 75 -27 100 -1 100 c 2
 63 100 l 2
 116 100 154 113 180 130 c 1
 178 164 166 204 135 251 c 1
 183 348 l 1
 221 291 236 242 238 200 c 1
 238 199 l 2
 238 195 238 192 238 188 c 0
 238 169 236 151 231 136 c 0
 211 50 148 0 63 -0 c 2
 -2 -0 l 1
 -26 1 -50 23 -50 48 c 0
EndSplineSet
Colour: ffda6b
EndChar

StartChar: _.beh_k.medi
Encoding: 65662 -1 126
GlifName: _.beh_k.medi
Width: 355
VWidth: 1304
GlyphClass: 2
UnlinkRmOvrlpSave: 1
Flags: HMW
LayerCount: 2
Fore
SplineSet
-50 50 m 0
 -49 76 -26 100 0 100 c 0
 24 100 49 100 73 100 c 0
 175 100 192 144 213 246 c 1
 254 237 l 1
 247 201 242 164 233 130 c 1
 260 101 301 99 339 99 c 0
 345 99 350 100 355 100 c 1
 355 -0 l 1
 329 -0 l 2
 264 0 226 22 201 56 c 1
 176 22 138 0 73 -0 c 0
 49 0 24 0 0 -0 c 0
 -26 0 -50 24 -50 50 c 0
EndSplineSet
Colour: ffda6b
EndChar

StartChar: _.sing.3noqte
Encoding: 65663 -1 127
GlifName: _.sing.3noqte
Width: 557
VWidth: 1304
GlyphClass: 2
Flags: HMW
LayerCount: 2
Fore
SplineSet
50 60 m 0
 50 87 72 109 99 109 c 0
 127 109 150 87 150 60 c 0
 150 32 127 10 99 10 c 0
 72 10 50 32 50 60 c 0
212 66 m 0
 212 98 238 124 269 124 c 0
 301 124 327 98 327 66 c 0
 327 35 301 10 269 10 c 0
 238 10 212 35 212 66 c 0
379 74 m 0
 379 110 407 138 443 138 c 0
 479 138 507 110 507 74 c 0
 507 40 479 10 443 10 c 0
 407 10 379 40 379 74 c 0
EndSplineSet
Colour: ffda6b
EndChar

StartChar: s.khat_tire
Encoding: 8208 8208 138
GlifName: s.khat_tire
Width: 504
VWidth: 0
GlyphClass: 2
Flags: HMW
LayerCount: 2
Fore
SplineSet
55 229 m 1
 55 307 l 1
 451 307 l 1
 451 229 l 1
 55 229 l 1
EndSplineSet
Colour: d7d7d7
EndChar

StartChar: s.zwj
Encoding: 8205 8205 174
GlifName: s.zwj
Width: 0
VWidth: 1331
GlyphClass: 2
Flags: HMW
LayerCount: 2
Fore
SplineSet
25 -327 m 1
 -25 -327 l 1
 -25 579 l 1
 -111 491 l 1
 -141 521 l 1
 -30 631 l 1
 -141 740 l 1
 -111 772 l 1
 0 660 l 1
 111 772 l 1
 141 740 l 1
 30 631 l 1
 141 521 l 1
 111 491 l 1
 25 579 l 1
 25 -327 l 1
EndSplineSet
Colour: d7d7d7
EndChar

StartChar: s.tagsim
Encoding: 247 247 182
GlifName: s.tagsim
Width: 564
VWidth: 1278
GlyphClass: 2
Flags: HMW
LayerCount: 2
Fore
SplineSet
59 352 m 1
 59 429 l 1
 506 429 l 1
 506 352 l 1
 59 352 l 1
234 204 m 1
 234 299 l 1
 330 299 l 1
 330 204 l 1
 234 204 l 1
234 482 m 1
 234 577 l 1
 330 577 l 1
 330 482 l 1
 234 482 l 1
EndSplineSet
Colour: d7d7d7
EndChar

StartChar: s.zwnj
Encoding: 8204 8204 215
GlifName: s.zwnj
Width: 0
VWidth: 1331
GlyphClass: 2
Flags: HMW
LayerCount: 2
Fore
SplineSet
-25 -308 m 1
 -25 710 l 1
 25 710 l 1
 25 -308 l 1
 -25 -308 l 1
EndSplineSet
Colour: d7d7d7
EndChar

StartChar: s.dotted_circle
Encoding: 9676 9676 220
GlifName: s.dotted_circle
Width: 576
VWidth: 1890
GlyphClass: 2
Flags: HMW
LayerCount: 2
Fore
SplineSet
60 181 m 128
 60 196 67 203 82 203 c 128
 97 203 104 196 104 182 c 2
 104 180 l 2
 104 166 97 159 82 159 c 128
 67 159 60 166 60 181 c 128
76 103 m 128
 76 118 83 126 98 126 c 128
 113 126 120 118 120 103 c 128
 120 88 113 80 98 80 c 128
 83 80 76 88 76 103 c 128
76 259 m 128
 76 274 83 282 98 282 c 128
 113 282 120 274 120 259 c 128
 120 244 113 236 99 236 c 0
 84 236 76 244 76 259 c 128
120 34 m 128
 120 49 127 56 142 57 c 0
 157 56 164 49 165 34 c 0
 164 19 157 12 142 12 c 128
 127 12 120 19 120 34 c 128
120 326 m 128
 120 341 127 348 142 349 c 0
 157 348 164 341 165 326 c 0
 164 311 157 304 142 304 c 128
 127 304 120 311 120 326 c 128
187 -8 m 128
 187 7 195 14 210 14 c 128
 225 14 233 7 233 -8 c 128
 233 -23 225 -30 210 -30 c 128
 195 -30 187 -23 187 -8 c 128
187 372 m 128
 187 387 195 394 210 394 c 128
 225 394 233 387 233 372 c 128
 233 357 225 350 210 350 c 128
 195 350 187 357 187 372 c 128
310 -26 m 128
 310 -41 303 -48 288 -48 c 128
 273 -48 266 -41 265 -26 c 0
 266 -11 273 -4 288 -3 c 0
 303 -4 310 -11 310 -26 c 128
288 410 m 128
 303 410 310 403 310 388 c 128
 310 373 303 366 288 365 c 0
 273 366 266 373 265 388 c 0
 266 403 273 410 288 410 c 128
344 -8 m 0
 344 7 352 14 367 14 c 128
 382 14 390 7 390 -8 c 0
 390 -23 382 -30 367 -31 c 0
 352 -30 344 -23 344 -8 c 0
344 372 m 0
 344 387 352 394 367 394 c 128
 382 394 390 387 390 372 c 0
 390 357 382 350 367 349 c 0
 352 350 344 357 344 372 c 0
412 34 m 128
 412 49 419 56 434 57 c 0
 449 56 456 49 456 34 c 128
 456 19 449 12 434 12 c 128
 419 12 412 19 412 34 c 128
412 326 m 128
 412 341 419 348 434 349 c 0
 449 348 456 341 456 326 c 128
 456 311 449 304 434 304 c 128
 419 304 412 311 412 326 c 128
456 103 m 128
 456 118 463 126 478 126 c 0
 493 126 500 118 501 103 c 0
 500 88 493 80 478 80 c 0
 463 80 456 88 456 103 c 128
456 259 m 128
 456 274 463 282 478 282 c 0
 493 282 500 274 501 259 c 0
 500 244 493 236 478 236 c 0
 463 236 456 244 456 259 c 128
472 181 m 128
 472 196 479 203 494 203 c 128
 509 203 516 196 517 182 c 1
 517 180 l 1
 516 166 509 159 494 159 c 128
 479 159 472 166 472 181 c 128
EndSplineSet
Colour: d7d7d7
EndChar

StartChar: s.figure_dash
Encoding: 8210 8210 224
GlifName: s.figure_dash
Width: 600
VWidth: 0
GlyphClass: 2
Flags: HMW
LayerCount: 2
Fore
SplineSet
55 229 m 1
 55 307 l 1
 547 307 l 1
 547 229 l 1
 55 229 l 1
EndSplineSet
Colour: d7d7d7
EndChar

StartChar: s.em_dash
Encoding: 8212 8212 263
GlifName: s.em_dash
Width: 1200
VWidth: 1175
GlyphClass: 2
Flags: HMW
LayerCount: 2
Fore
SplineSet
55 229 m 1
 55 307 l 1
 1147 307 l 1
 1147 229 l 1
 55 229 l 1
EndSplineSet
Colour: d7d7d7
EndChar

StartChar: s.bullet
Encoding: 8226 8226 278
GlifName: s.bullet
Width: 602
VWidth: 1331
GlyphClass: 2
Flags: HMW
LayerCount: 2
Fore
SplineSet
532 432 m 0
 532 307 427 202 302 202 c 0
 189 202 77 305 77 410 c 0
 77 564 184 650 295 650 c 0
 442 650 532 564 532 432 c 0
EndSplineSet
Colour: d7d7d7
EndChar

StartChar: s.en_dash
Encoding: 8211 8211 310
GlifName: s.en_dash
Width: 600
VWidth: 1175
GlyphClass: 2
Flags: HMW
LayerCount: 2
Fore
SplineSet
55 229 m 1
 55 307 l 1
 547 307 l 1
 547 229 l 1
 55 229 l 1
EndSplineSet
Colour: d7d7d7
EndChar

StartChar: s.horizontal_bar
Encoding: 8213 8213 316
GlifName: s.horizontal_bar
Width: 2400
VWidth: 1175
GlyphClass: 2
Flags: HMW
LayerCount: 2
Fore
SplineSet
55 229 m 1
 55 307 l 1
 2347 307 l 1
 2347 229 l 1
 55 229 l 1
EndSplineSet
Colour: d7d7d7
EndChar

StartChar: s.lrm
Encoding: 8206 8206 317
GlifName: s.lrm
Width: 0
VWidth: 1331
GlyphClass: 2
Flags: HMW
LayerCount: 2
Fore
SplineSet
-25 -308 m 1
 -25 676 l 1
 196 676 l 1
 106 759 l 1
 138 790 l 1
 280 651 l 1
 138 510 l 1
 106 544 l 1
 196 628 l 1
 22 628 l 1
 22 -308 l 1
 -25 -308 l 1
EndSplineSet
Colour: d7d7d7
EndChar

StartChar: s.rlm
Encoding: 8207 8207 346
GlifName: s.rlm
Width: 0
VWidth: 1331
GlyphClass: 2
Flags: HMW
LayerCount: 2
Fore
SplineSet
22 676 m 1
 22 -308 l 1
 -25 -308 l 1
 -25 628 l 1
 -196 628 l 1
 -108 544 l 1
 -138 510 l 1
 -280 651 l 1
 -138 790 l 1
 -108 759 l 1
 -196 676 l 1
 22 676 l 1
EndSplineSet
Colour: d7d7d7
EndChar

StartChar: _.mark.he_yeh
Encoding: 65664 -1 400
GlifName: _.mark.he_yeh
Width: 209
VWidth: 1304
GlyphClass: 1
UnlinkRmOvrlpSave: 1
Flags: HMW
LayerCount: 2
Fore
SplineSet
192 89 m 2
 192 90 l 2
 192 95 184 100 167 104 c 128
 150 108 142 109 141 109 c 0
 122 114 113 124 113 141 c 0
 113 176 135 207 178 234 c 0
 191 241 202 245 210 245 c 1
 210 200 l 1
 186 200 165 187 147 162 c 1
 145 156 l 1
 145 153 156 146 180 138 c 128
 204 130 218 124 221 120 c 128
 224 116 226 107 226 92 c 128
 226 77 219 62 206 49 c 0
 169 12 101 -6 0 -6 c 1
 17 42 l 1
 96 42 150 53 178 75 c 0
 187 82 192 87 192 89 c 2
EndSplineSet
EndChar

StartChar: uni0000
Encoding: 0 0 401
GlifName: uni0000
Width: 497
VWidth: 0
GlyphClass: 2
Flags: HMW
LayerCount: 2
Fore
SplineSet
59 -251 m 1
 59 709 l 1
 438 709 l 1
 438 -251 l 1
 59 -251 l 1
105 -181 m 1
 387 -181 l 1
 387 648 l 1
 105 648 l 1
 105 -181 l 1
EndSplineSet
EndChar

StartChar: _.ghaf.medi
Encoding: 65665 -1 402
GlifName: _.ghaf.medi
Width: 532
VWidth: 0
GlyphClass: 2
Flags: HMW
LayerCount: 2
Fore
SplineSet
-50 50 m 0
 -49 75 -26 100 -1 100 c 2
 154 100 l 2
 204 100 240 112 266 127 c 1
 266 129 266 130 266 132 c 0
 266 194 234 256 201 298 c 0
 153 361 90 411 46 438 c 0
 35 446 27 450 27 468 c 0
 27 510 55 569 92 606 c 1
 462 714 l 1
 441 614 l 1
 111 519 l 1
 175 470 234 414 273 354 c 0
 343 249 393 100 532 100 c 1
 532 -0 l 1
 426 0 367 50 317 118 c 1
 294 43 233 0 154 -0 c 2
 -1 -0 l 1
 -26 1 -50 24 -50 50 c 0
100 668 m 1
 111 724 l 1
 438 812 l 1
 428 753 l 1
 100 668 l 1
EndSplineSet
Colour: ffda6b
EndChar

StartChar: _.ghaf.init
Encoding: 65666 -1 403
GlifName: _.ghaf.init
Width: 526
VWidth: 0
GlyphClass: 2
Flags: HMW
LayerCount: 2
Fore
SplineSet
328 189 m 0
 328 72 254 0 154 -0 c 2
 -1 -0 l 1
 -26 1 -50 24 -50 50 c 0
 -49 75 -26 100 -1 100 c 2
 154 100 l 2
 204 100 240 112 266 127 c 1
 266 129 266 130 266 132 c 0
 266 268 125 389 46 438 c 0
 35 446 27 450 27 468 c 0
 27 510 55 569 92 606 c 1
 462 714 l 1
 441 614 l 1
 111 519 l 1
 230 428 328 313 328 189 c 0
100 668 m 1
 111 724 l 1
 438 812 l 1
 428 753 l 1
 100 668 l 1
EndSplineSet
Colour: ffda6b
EndChar

StartChar: l.allah.ref1
Encoding: 65667 -1 404
Width: 1300
VWidth: 0
GlyphClass: 2
Flags: H
HStem: 0 100<416.807 535.903 655.019 731>
VStem: 560 71<124 315.817>
LayerCount: 2
Fore
SplineSet
460 100 m 0
 524 100 557 132 560 196 c 1
 530 591 l 1
 612 668 l 1
 631 200 l 1
 631 196 l 1
 633 132 666 100 731 100 c 1
 731 0 l 1
 669 0 624 19 596 58 c 1
 567 19 522 0 460 0 c 0
 448 0 437 5 426 16 c 0
 415 27 410 38 410 50 c 0
 411 62 416 73 426 84 c 0
 436 95 447 100 460 100 c 0
EndSplineSet
Comment: "l.allah had both contours and references, so the contours were moved into this glyph, and a reference to it was added in the original."
Colour: ff8080
EndChar

StartChar: _.la.isol.fa
Encoding: 65668 -1 405
Width: 463
VWidth: 0
GlyphClass: 2
Flags: HW
LayerCount: 2
Fore
SplineSet
64 598 m 0
 63 610 68 616 69 621 c 0
 76 644 79 659 97 708 c 1
 113 708 l 1
 140 497 217 389 283 316 c 1
 310 345 330 375 330 412 c 0
 330 413 330 414 330 415 c 2
 315 715 l 2
 315 727 319 730 323 734 c 0
 339 751 346 763 384 800 c 1
 398 793 l 1
 398 369 l 2
 398 320 375 284 342 253 c 1
 375 217 399 184 399 140 c 0
 399 34 359 0 139 -0 c 1
 125 22 120 43 118 64 c 0
 117 76 116 87 117 98 c 1
 117 100 l 1
 121 171 172 219 222 262 c 1
 154 336 80 442 64 598 c 0
184 100 m 1
 201 100 216 99 230 99 c 0
 296 99 339 103 339 124 c 0
 339 142 314 168 280 202 c 1
 243 172 206 142 184 100 c 1
EndSplineSet
Colour: ffda6b
EndChar

StartChar: _.la.fina.fa
Encoding: 65669 -1 406
Width: 620
VWidth: 0
GlyphClass: 2
Flags: HW
HStem: -0 100<508.713 620>
VStem: 241 44<135.339 230.51> 345 81<659.05 757.7>
LayerCount: 2
Fore
SplineSet
66 537 m 0
 73 559 76 573 94 623 c 1
 110 619 l 1
 132 583 285 329 285 187 c 0
 285 145 272 114 238 100 c 1
 240 111 241 122 241 134 c 0
 241 209 195 302 68 516 c 0
 62 528 65 532 66 537 c 0
138 -52 m 1
 149 0 156 14 162 37 c 0
 163 42 163 46 174 52 c 0
 269 79 366 140 400 216 c 1
 345 715 l 1
 345 727 349 730 351 734 c 0
 368 751 376 763 414 800 c 1
 426 791 l 1
 466 211 l 1
 473 149 504 100 620 100 c 1
 620 -0 l 1
 496 0 444 38 423 103 c 1
 355 12 221 -44 153 -58 c 1
 138 -52 l 1
EndSplineSet
Colour: ffda6b
EndChar

StartChar: _.sing.alef_maad
Encoding: 65672 -1 409
Width: 443
VWidth: 1352
GlyphClass: 2
Flags: HW
LayerCount: 2
Fore
SplineSet
257 8 m 0
 228 8 198 12 169 12 c 0
 121 12 78 2 50 -45 c 1
 75 79 132 100 194 100 c 0
 225 100 256 96 288 96 c 0
 337 96 365 102 393 124 c 1
 362 28 312 8 257 8 c 0
EndSplineSet
Colour: ffda6b
EndChar

StartChar: _.sing.star
Encoding: 65673 -1 410
Width: 461
VWidth: 1197
GlyphClass: 2
Flags: HW
LayerCount: 2
Fore
SplineSet
50 496 m 1
 59 496 l 1
 64 482 76 476 96 474 c 0
 149 469 189 445 220 402 c 1
 216 402 l 2
 214 402 212 403 209 403 c 0
 194 403 167 399 146 399 c 0
 88 399 50 438 50 496 c 1
52 290 m 1
 56 296 l 1
 67 296 l 2
 79 296 110 342 116 348 c 0
 138 370 172 382 216 386 c 1
 220 383 l 1
 213 376 206 365 199 351 c 0
 169 298 137 271 103 271 c 0
 89 271 72 276 52 290 c 1
179 522 m 0
 179 558 198 584 232 601 c 1
 236 594 l 1
 231 589 229 582 229 573 c 0
 229 562 249 515 251 509 c 0
 252 504 252 494 252 477 c 0
 252 461 247 439 235 409 c 1
 229 409 l 1
 228 410 220 425 204 452 c 0
 188 480 179 504 179 522 c 0
209 309 m 0
 209 327 215 350 229 378 c 1
 235 378 l 1
 247 353 258 332 269 316 c 0
 279 300 284 282 284 264 c 0
 284 230 266 204 232 186 c 1
 227 193 l 1
 231 197 233 202 233 209 c 0
 233 218 212 270 210 276 c 0
 210 281 209 291 209 309 c 0
243 383 m 1
 247 388 l 1
 257 387 267 386 281 386 c 2
 317 386 l 2
 372 386 411 348 411 293 c 2
 411 290 l 1
 402 290 l 1
 398 302 380 310 348 310 c 0
 316 310 281 334 243 383 c 1
243 404 m 1
 274 442 286 513 354 513 c 0
 375 513 394 508 411 497 c 1
 406 490 l 1
 386 490 371 479 361 458 c 1
 331 419 294 400 247 400 c 1
 243 404 l 1
EndSplineSet
Colour: ffda6b
EndChar

StartChar: _.sing.zarb
Encoding: 65674 -1 411
Width: 467
VWidth: 1279
GlyphClass: 2
Flags: HW
LayerCount: 2
Fore
SplineSet
50 363 m 0
 50 387 80 416 103 416 c 0
 109 416 114 415 119 410 c 2
 234 296 l 1
 346 410 l 2
 351 415 357 416 363 416 c 0
 387 416 417 387 417 363 c 0
 417 357 415 351 410 346 c 2
 297 232 l 1
 403 127 l 2
 408 122 410 116 410 110 c 0
 410 87 380 57 357 57 c 0
 351 57 345 59 340 64 c 2
 234 170 l 1
 127 63 l 2
 122 58 117 56 111 56 c 0
 87 56 57 86 57 110 c 0
 57 116 59 122 64 127 c 2
 170 232 l 1
 57 346 l 2
 52 351 50 357 50 363 c 0
EndSplineSet
Colour: ffda6b
EndChar

StartChar: _.sing.khateh_amoodi
Encoding: 65675 -1 412
Width: 190
VWidth: 1331
GlyphClass: 2
Flags: HW
LayerCount: 2
Fore
SplineSet
50 29 m 2
 50 320 l 2
 50 339 72 349 95 349 c 0
 117 349 140 340 140 320 c 2
 140 29 l 2
 140 10 117 1 95 1 c 0
 73 1 50 10 50 29 c 2
50 480 m 2
 50 770 l 2
 50 789 72 800 95 800 c 0
 117 800 140 790 140 770 c 2
 140 480 l 2
 140 461 117 451 95 451 c 0
 73 451 50 461 50 480 c 2
EndSplineSet
Colour: ffda6b
EndChar
